<?xml version="1.0" encoding="utf-8" standalone="no"?>
<svg xmlns:xlink="http://www.w3.org/1999/xlink" xmlns="http://www.w3.org/2000/svg" width="248.4pt" height="223.2pt" viewBox="0 0 248.4 223.2" version="1.1" data-fluxplot="1" data-plot-type="plot">
  <defs>
    <style type="text/css">*{stroke-linejoin: round; stroke-linecap: butt}</style>
  </defs>
  <g id="figure" data-role="figure" data-kind="container">
    <g id="patch_1">
      <path d="M 0 223.2  L 248.4 223.2  L 248.4 0  L 0 0  z " style="fill: #ffffff"/>
    </g>
    <g id="patch_2">
      <path d="M 23.994 187.488  L 207.018 187.488  L 207.018 4.464  L 23.994 4.464  z " style="fill: #ffffff"/>
    </g>
    <g id="pane3d_1">
      <g id="axis.x.background" data-role="background" data-axis="x" data-kind="shape">
        <path d="M 30.462163 135.588834  L 93.306918 97.658164  L 93.306918 18.217395  L 30.462163 56.148065  " style="fill: none; opacity: 0"/>
      </g>
    </g>
    <g id="pane3d_2">
      <g id="axis.y.background" data-role="background" data-axis="y" data-kind="shape">
        <path d="M 93.306918 97.658164  L 205.496432 130.85734  L 205.496432 51.416572  L 93.306918 18.217395  " style="fill: none; opacity: 0"/>
      </g>
    </g>
    <g id="pane3d_3">
      <g id="axis.z.background" data-role="background" data-axis="z" data-kind="shape">
        <path d="M 30.462163 135.588834  L 142.651677 168.78801  L 205.496432 130.85734  L 93.306918 97.658164  " style="fill: none; opacity: 0"/>
      </g>
    </g>
    <g id="grid3d_1">
      <g id="axis.x.gridline" data-role="gridline" data-axis="x" data-kind="line">
        <path d="M 33.901219 136.606521  L 96.745974 98.675851  L 96.745974 19.235083  " style="fill: none; stroke: #dad8ce; stroke-opacity: 0.6; stroke-width: 0.35"/>
        <path d="M 75.564355 148.935497  L 138.40911 111.004827  L 138.40911 31.564058  " style="fill: none; stroke: #dad8ce; stroke-opacity: 0.6; stroke-width: 0.35"/>
        <path d="M 117.227491 161.264472  L 180.072246 123.333802  L 180.072246 43.893034  " style="fill: none; stroke: #dad8ce; stroke-opacity: 0.6; stroke-width: 0.35"/>
      </g>
    </g>
    <g id="grid3d_2">
      <g id="axis.y.gridline" data-role="gridline" data-axis="y" data-kind="line">
        <path d="M 51.430561 43.492349  L 51.430561 122.933117  L 163.620075 156.132294  " style="fill: none; stroke: #dad8ce; stroke-opacity: 0.6; stroke-width: 0.35"/>
        <path d="M 74.258387 29.714354  L 74.258387 109.155122  L 186.447901 142.354298  " style="fill: none; stroke: #dad8ce; stroke-opacity: 0.6; stroke-width: 0.35"/>
      </g>
    </g>
    <g id="grid3d_3">
      <g id="axis.z.gridline" data-role="gridline" data-axis="z" data-kind="line">
        <path d="M 205.496432 93.404346  L 93.306918 60.20517  L 30.462163 98.13584  " style="fill: none; stroke: #dad8ce; stroke-opacity: 0.6; stroke-width: 0.35"/>
        <path d="M 205.496432 55.041508  L 93.306918 21.842332  L 30.462163 59.773002  " style="fill: none; stroke: #dad8ce; stroke-opacity: 0.6; stroke-width: 0.35"/>
      </g>
    </g>
    <g id="axis3d_1">
      <g id="axis.x.spine" data-role="spine" data-axis="x" data-kind="line">
        <path d="M 30.462163 135.588834  L 142.651677 168.78801  " style="fill: none; stroke: #dad8ce; stroke-width: 0.65; stroke-linecap: round"/>
      </g>
      <g id="xtick_1">
        <g id="axis.x.tick.0" data-role="tick" data-axis="x" data-index="0" data-kind="line">
          <path d="M 34.403977 136.303075  L 33.901219 136.606521  " style="fill: none; stroke: #575653; stroke-linecap: round"/>
        </g>
        <g id="axis.x.ticklabel.0" data-role="tick-label" data-axis="x" data-index="0" data-kind="text">
          <text style="font-size: 5px; font-family: 'Arial', 'Helvetica', 'Lato', 'Helvetica Neue', 'DejaVu Sans', sans-serif; text-anchor: middle; fill: #100f0f" x="29.28634" y="148.865593" transform="rotate(-0 29.28634 148.865593)">−10</text>
        </g>
      </g>
      <g id="xtick_2">
        <g id="axis.x.tick.1" data-role="tick" data-axis="x" data-index="1" data-kind="line">
          <path d="M 76.067113 148.632051  L 75.564355 148.935497  " style="fill: none; stroke: #575653; stroke-linecap: round"/>
        </g>
        <g id="axis.x.ticklabel.1" data-role="tick-label" data-axis="x" data-index="1" data-kind="text">
          <text style="font-size: 5px; font-family: 'Arial', 'Helvetica', 'Lato', 'Helvetica Neue', 'DejaVu Sans', sans-serif; text-anchor: middle; fill: #100f0f" x="70.949477" y="161.194569" transform="rotate(-0 70.949477 161.194569)">0</text>
        </g>
      </g>
      <g id="xtick_3">
        <g id="axis.x.tick.2" data-role="tick" data-axis="x" data-index="2" data-kind="line">
          <path d="M 117.730249 160.961027  L 117.227491 161.264472  " style="fill: none; stroke: #575653; stroke-linecap: round"/>
        </g>
        <g id="axis.x.ticklabel.2" data-role="tick-label" data-axis="x" data-index="2" data-kind="text">
          <text style="font-size: 5px; font-family: 'Arial', 'Helvetica', 'Lato', 'Helvetica Neue', 'DejaVu Sans', sans-serif; text-anchor: middle; fill: #100f0f" x="112.612613" y="173.523545" transform="rotate(-0 112.612613 173.523545)">10</text>
        </g>
      </g>
      <g id="axis.x.title" data-role="axis-title" data-axis="x" data-kind="text">
        <text style="font-size: 6px; font-family: 'Arial', 'Helvetica', 'Lato', 'Helvetica Neue', 'DejaVu Sans', sans-serif; text-anchor: middle; fill: #100f0f" x="72.93097" y="178.302808" transform="rotate(-343.515435 72.93097 178.302808)">PC 1 (15.9%)</text>
      </g>
    </g>
    <g id="axis3d_2">
      <g id="axis.y.spine" data-role="spine" data-axis="y" data-kind="line">
        <path d="M 205.496432 130.85734  L 142.651677 168.78801  " style="fill: none; stroke: #dad8ce; stroke-width: 0.65; stroke-linecap: round"/>
      </g>
      <g id="xtick_4">
        <g id="axis.y.tick.1" data-role="tick" data-axis="y" data-index="1" data-kind="line">
          <path d="M 162.722559 155.8667  L 163.620075 156.132294  " style="fill: none; stroke: #575653; stroke-linecap: round"/>
        </g>
        <g id="axis.y.ticklabel.1" data-role="tick-label" data-axis="y" data-index="1" data-kind="text">
          <text style="font-size: 5px; font-family: 'Arial', 'Helvetica', 'Lato', 'Helvetica Neue', 'DejaVu Sans', sans-serif; text-anchor: middle; fill: #100f0f" x="171.858487" y="168.043919" transform="rotate(-0 171.858487 168.043919)">0</text>
        </g>
      </g>
      <g id="xtick_5">
        <g id="axis.y.tick.2" data-role="tick" data-axis="y" data-index="2" data-kind="line">
          <path d="M 185.550385 142.088705  L 186.447901 142.354298  " style="fill: none; stroke: #575653; stroke-linecap: round"/>
        </g>
        <g id="axis.y.ticklabel.2" data-role="tick-label" data-axis="y" data-index="2" data-kind="text">
          <text style="font-size: 5px; font-family: 'Arial', 'Helvetica', 'Lato', 'Helvetica Neue', 'DejaVu Sans', sans-serif; text-anchor: middle; fill: #100f0f" x="194.686313" y="154.265923" transform="rotate(-0 194.686313 154.265923)">10</text>
        </g>
      </g>
      <g id="axis.y.title" data-role="axis-title" data-axis="y" data-kind="text">
        <text style="font-size: 6px; font-family: 'Arial', 'Helvetica', 'Lato', 'Helvetica Neue', 'DejaVu Sans', sans-serif; text-anchor: middle; fill: #100f0f" x="198.414697" y="174.784814" transform="rotate(-31.113561 198.414697 174.784814)">PC 2 (14.0%)</text>
      </g>
    </g>
    <g id="axis3d_3">
      <g id="axis.z.spine" data-role="spine" data-axis="z" data-kind="line">
        <path d="M 205.496432 130.85734  L 205.496432 51.416572  " style="fill: none; stroke: #dad8ce; stroke-width: 0.65; stroke-linecap: round"/>
      </g>
      <g id="xtick_6">
        <g id="axis.z.tick.1" data-role="tick" data-axis="z" data-index="1" data-kind="line">
          <path d="M 204.598916 93.138753  L 205.496432 93.404346  " style="fill: none; stroke: #575653; stroke-linecap: round"/>
        </g>
        <g id="axis.z.ticklabel.1" data-role="tick-label" data-axis="z" data-index="1" data-kind="text">
          <text style="font-size: 5px; font-family: 'Arial', 'Helvetica', 'Lato', 'Helvetica Neue', 'DejaVu Sans', sans-serif; text-anchor: middle; fill: #100f0f" x="218.349722" y="96.697035" transform="rotate(-0 218.349722 96.697035)">0</text>
        </g>
      </g>
      <g id="xtick_7">
        <g id="axis.z.tick.2" data-role="tick" data-axis="z" data-index="2" data-kind="line">
          <path d="M 204.598916 54.775915  L 205.496432 55.041508  " style="fill: none; stroke: #575653; stroke-linecap: round"/>
        </g>
        <g id="axis.z.ticklabel.2" data-role="tick-label" data-axis="z" data-index="2" data-kind="text">
          <text style="font-size: 5px; font-family: 'Arial', 'Helvetica', 'Lato', 'Helvetica Neue', 'DejaVu Sans', sans-serif; text-anchor: middle; fill: #100f0f" x="218.349722" y="58.334197" transform="rotate(-0 218.349722 58.334197)">10</text>
        </g>
      </g>
    </g>
    <g id="plot-area" data-role="plot-area" data-kind="container">
      <g id="direction-0-projection.x-trajectory-projection" data-role="x-trajectory-projection" data-series="direction-0-projection" data-kind="line">
        <path d="M 109.697207 135.410665  L 107.901679 134.939676  L 105.713833 134.342465  L 103.219764 133.671583  L 100.523043 133.007895  L 97.725 132.429763  L 94.920577 131.981398  L 92.208706 131.662768  L 89.702691 131.450346  L 87.516163 131.333282  L 85.721499 131.336737  L 84.313873 131.512262  L 83.217589 131.903509  L 82.336618 132.513348  L 81.60203 133.297908  L 80.965324 134.184523  L 80.346369 135.095296  L 79.596144 135.960577  L 78.526639 136.724746  L 77.008714 137.354525  L 75.072946 137.843117  L 72.938234 138.198481  L 70.930512 138.415485  L 69.328716 138.459615  L 68.240045 138.290111  L 67.590322 137.910221  L 67.230003 137.401428  L 67.074606 136.911179  L 67.181372 136.606663  L 67.723494 136.626514  L 68.894392 137.04617  L 70.801095 137.855209  L 73.396516 138.949137  L 76.48333 140.154201  L 79.791595 141.286837  L 83.08821 142.222821  L 86.246841 142.943459  L 89.238096 143.535219  L 92.062582 144.133194  L 94.686719 144.828503  L 97.02149 145.592921  L 98.957632 146.282973  L 100.422815 146.726365  L 101.413032 146.826757  L 101.976734 146.606636  L 102.171115 146.167577  L 102.049164 145.615443  L 101.693644 145.015629  L 101.256334 144.403336  L 100.951172 143.825042  L 100.980791 143.363483  L 101.441377 143.113654  L 102.267997 143.121743  L 103.270837 143.33888  L 104.243279 143.634314  L 105.074803 143.866814  L 105.791429 143.957094  L 106.502599 143.908235  L 107.303284 143.770208  L 108.203723 143.59634  L 109.130672 143.428733  L 109.959725 143.300758  L 110.528141 143.220879  L 110.633142 143.139802  L 110.089958 142.954428  L 108.86374 142.580737  L 107.168832 142.047031  L 105.410256 141.51265  L 103.993383 141.174255  L 103.157703 141.132436  L 102.942153 141.329552  L 103.24471 141.601942  L 103.873256 141.793944  L 104.569739 141.843618  L 105.05371 141.790391  L 105.115888 141.715358  L 104.702137 141.668538  L 103.930491 141.640158  L 103.029745 141.593718  L 102.242026 141.525897  L 101.739126 141.492443  L 101.577341 141.577396  L 101.70493 141.832906  L 102.011925 142.238915  L 102.403227 142.711101  L 102.845276 143.141275  L 103.354451 143.439898  L 103.926103 143.553733  L 104.45865 143.460776  L 104.731694 143.153993  L 104.47383 142.621101  L 103.485614 141.827033  L 101.748974 140.716678  L 99.454488 139.257989  L 96.915116 137.507138  L 94.407312 135.639047  L 92.02519 133.899877  L 89.65963 132.505084  L 87.12565 131.556566  L 84.347084 131.029742  L 81.459683 130.822534  L 78.766295 130.828074  L 76.596342 130.989365  L 75.164636 131.308448  L 74.4929 131.805394  L 74.409764 132.460411  L 74.618402 133.192663  L 74.798253 133.892556  L 74.708871 134.47511  L 74.251715 134.903172  L 73.470605 135.170306  L 72.482956 135.269877  L 71.385463 135.181033  L 70.201697 134.879402  L 68.917749 134.361309  L 67.561754 133.664479  L 66.233039 132.865469  L 65.05653 132.053774  L 64.114272 131.303589  L 63.421098 130.662421  " clip-path="url(#p56d52d2f04)" style="fill: none; stroke: #205ea6; stroke-opacity: 0.15; stroke-width: 0.55; stroke-linecap: round"/>
      </g>
      <g id="direction-45-projection.x-trajectory-projection" data-role="x-trajectory-projection" data-series="direction-45-projection" data-kind="line">
        <path d="M 107.404096 133.975198  L 106.847499 134.159505  L 105.89964 134.320606  L 104.651696 134.40926  L 103.217405 134.380846  L 101.592153 134.204368  L 99.613417 133.871744  L 97.086023 133.410505  L 93.973865 132.893682  L 90.484069 132.435187  L 86.971852 132.164243  L 83.760534 132.185727  L 81.031274 132.543672  L 78.844507 133.202669  L 77.207473 134.054895  L 76.093446 134.950002  L 75.408206 135.738287  L 74.971516 136.308578  L 74.55615 136.603935  L 73.961373 136.617906  L 73.077717 136.391907  L 71.920723 136.022611  L 70.624636 135.659572  L 69.38038 135.463698  L 68.341921 135.539117  L 67.566284 135.886926  L 67.037017 136.420435  L 66.749952 137.030438  L 66.811016 137.652953  L 67.507592 138.29845  L 69.320431 139.037412  L 72.81461 139.964548  L 78.410755 141.171162  L 86.152477 142.732113  L 95.621258 144.690203  L 106.055234 147.019873  L 116.570869 149.58864  L 126.352228 152.157811  L 134.739262 154.441958  L 141.25881 156.198338  L 145.666889 157.290962  L 148.010304 157.698176  L 148.636526 157.479075  L 148.085125 156.741201  L 146.881261 155.631255  L 145.352354 154.3317  L 143.601101 153.036292  L 141.663673 151.903817  L 139.727846 151.023883  L 138.208028 150.421244  L 137.573917 150.085302  L 138.036622 149.981528  L 139.350867 150.034291  L 140.909306 150.117183  L 142.069451 150.094009  L 142.470429 149.89533  L 142.114543 149.559726  L 141.200432 149.186924  L 139.893171 148.836243  L 138.238902 148.466475  L 136.26534 147.978148  L 134.133227 147.317044  L 132.170034 146.543017  L 130.756293 145.809709  L 130.182052 145.286073  L 130.590711 145.089245  L 132.006077 145.261051  L 134.351388 145.771667  L 137.420934 146.527609  L 140.855744 147.386023  L 144.194867 148.188469  L 146.986246 148.806164  L 148.878149 149.168159  L 149.643072 149.257912  L 149.168225 149.095614  L 147.481651 148.729666  L 144.816871 148.234089  L 141.635829 147.694192  L 138.526838 147.179887  L 136.008465 146.728345  L 134.371161 146.349919  L 133.660813 146.046991  L 133.785587 145.827537  L 134.619516 145.704627  L 135.994148 145.682383  L 137.60497 145.729611  L 138.968083 145.752922  L 139.539155 145.598544  L 138.958736 145.109713  L 137.246735 144.218793  L 134.783126 143.008067  L 132.066006 141.677942  L 129.409256 140.432403  L 126.78176 139.366477  L 123.876699 138.441216  L 120.342688 137.556794  L 116.013184 136.65373  L 111.003324 135.761319  L 105.649067 134.970191  L 100.381285 134.373345  L 95.635767 134.031143  L 91.811802 133.975305  L 89.208951 134.216953  L 87.913234 134.728218  L 87.716412 135.411589  L 88.166248 136.103832  L 88.748029 136.635688  L 89.081243 136.911293  L 89.006334 136.947  L 88.524064 136.83957  L 87.661791 136.69175  L 86.387747 136.553438  L 84.649186 136.417902  L 82.493081 136.263058  L 80.134765 136.089704  L 77.881959 135.917531  L 75.965026 135.751772  L 74.426983 135.567311  L 73.166555 135.334169  L 72.076189 135.054785  " clip-path="url(#p56d52d2f04)" style="fill: none; stroke: #24837b; stroke-opacity: 0.15; stroke-width: 0.55; stroke-linecap: round"/>
      </g>
      <g id="direction-90-projection.x-trajectory-projection" data-role="x-trajectory-projection" data-series="direction-90-projection" data-kind="line">
        <path d="M 106.344716 133.8109  L 105.791069 133.997549  L 104.860114 134.053395  L 103.427087 133.969869  L 101.447261 133.795123  L 98.982531 133.600176  L 96.158187 133.434495  L 93.098048 133.306778  L 89.910313 133.20334  L 86.73301 133.123107  L 83.766981 133.089912  L 81.234374 133.128116  L 79.284727 133.22799  L 77.927994 133.345072  L 77.052253 133.441025  L 76.498563 133.526635  L 76.121633 133.660442  L 75.793712 133.901056  L 75.385205 134.260253  L 74.789471 134.701206  L 73.99495 135.177633  L 73.130458 135.67226  L 72.404409 136.199562  L 71.963783 136.770506  L 71.791403 137.353438  L 71.737371 137.870866  L 71.66026 138.244562  L 71.558632 138.454625  L 71.605034 138.558271  L 72.091881 138.650477  L 73.349882 138.803575  L 75.673188 139.041195  L 79.244957 139.363706  L 84.052569 139.792058  L 89.813778 140.378861  L 95.960745 141.167901  L 101.731364 142.129062  L 106.373104 143.124342  L 109.385385 143.9403  L 110.671555 144.372249  L 110.517004 144.308495  L 109.428756 143.767503  L 107.942699 142.872547  L 106.488521 141.790167  L 105.346169 140.67511  L 104.682097 139.647479  L 104.614662 138.796454  L 105.238897 138.184545  L 106.596111 137.834408  L 108.615893 137.708828  L 111.06985 137.706838  L 113.560217 137.691867  L 115.579299 137.547144  L 116.667506 137.229894  L 116.616168 136.791607  L 115.570406 136.346376  L 113.933596 136.004923  L 112.14106 135.815719  L 110.478263 135.753122  L 109.061685 135.761648  L 107.937429 135.824012  L 107.175651 135.996828  L 106.887166 136.379132  L 107.167675 137.035314  L 108.025244 137.928562  L 109.325629 138.909809  L 110.788286 139.764149  L 112.055686 140.282665  L 112.826917 140.330074  L 112.990461 139.886472  L 112.66457 139.052282  L 112.119663 138.014054  L 111.633127 136.979669  L 111.372895 136.109138  L 111.372484 135.472579  L 111.593279 135.060185  L 112.008106 134.830698  L 112.63357 134.754809  L 113.480535 134.820381  L 114.461563 135.003647  L 115.3438 135.243735  L 115.818304 135.44286  L 115.657529 135.4921  L 114.847281 135.303343  L 113.612852 134.838172  L 112.340915 134.131001  L 111.458686 133.298008  L 111.305069 132.513863  L 112.00486 131.948668  L 113.381822 131.688259  L 114.969459 131.689493  L 116.143763 131.803605  L 116.330038 131.856917  L 115.19808 131.736706  L 112.748397 131.428894  L 109.245303 131.000379  L 105.032744 130.550805  L 100.372785 130.173209  L 95.420787 129.935281  L 90.334657 129.873369  L 85.381994 129.985509  L 80.914252 130.218718  L 77.219482 130.46317  L 74.391566 130.570433  L 72.335144 130.406194  L 70.87445 129.918078  L 69.843655 129.174304  L 69.097793 128.341177  L 68.490798 127.610414  L 67.882922 127.125545  L 67.159605 126.944578  L 66.226816 127.041227  L 65.000895 127.329281  L 63.437876 127.701563  L 61.592528 128.077156  L 59.635616 128.434572  L 57.792557 128.80408  L 56.255721 129.223524  L 55.127324 129.693211  L 54.413382 130.16712  " clip-path="url(#p56d52d2f04)" style="fill: none; stroke: #228833; stroke-opacity: 0.15; stroke-width: 0.55; stroke-linecap: round"/>
      </g>
      <g id="direction-135-projection.x-trajectory-projection" data-role="x-trajectory-projection" data-series="direction-135-projection" data-kind="line">
        <path d="M 111.879614 135.166336  L 108.580575 134.675218  L 104.841874 134.101135  L 101.165081 133.509488  L 97.915386 132.976881  L 95.150892 132.564276  L 92.691536 132.297674  L 90.340788 132.170267  L 88.042715 132.161005  L 85.87597 132.249933  L 83.96671 132.41982  L 82.435751 132.65746  L 81.381348 132.962869  L 80.836784 133.351798  L 80.713382 133.836413  L 80.815191 134.399228  L 80.943682 134.98952  L 80.987167 135.548499  L 80.887723 136.037478  L 80.531538 136.445505  L 79.713805 136.77933  L 78.238418 137.050433  L 76.064253 137.26615  L 73.371051 137.423274  L 70.510685 137.509269  L 67.896136 137.516344  L 65.891728 137.46386  L 64.747293 137.405626  L 64.58898 137.403397  L 65.446265 137.480353  L 67.266534 137.595852  L 69.904145 137.666067  L 73.118448 137.610358  L 76.622065 137.383601  L 80.166979 136.976896  L 83.610822 136.407517  L 86.916682 135.717675  L 90.084146 134.971748  L 93.062047 134.23575  L 95.719765 133.551879  L 97.905716 132.935166  L 99.540894 132.393759  L 100.651633 131.942116  L 101.31783 131.587659  L 101.606976 131.306176  L 101.58455 131.038937  L 101.38692 130.728306  L 101.24211 130.361782  L 101.359829 129.982318  L 101.763894 129.649782  L 102.243714 129.388609  L 102.498286 129.171317  L 102.355494 128.955131  L 101.871261 128.726905  L 101.240115 128.502897  L 100.633888 128.283278  L 100.123575 128.019566  L 99.712526 127.645258  L 99.391642 127.147252  L 99.138707 126.604508  L 98.885127 126.150629  L 98.523156 125.881654  L 97.975957 125.784305  L 97.283182 125.743064  L 96.619876 125.619911  L 96.223712 125.343814  L 96.255098 124.944327  L 96.676617 124.511558  L 97.242616 124.125969  L 97.637718 123.813968  L 97.686344 123.555903  L 97.481772 123.327831  L 97.342083 123.135572  L 97.626249 123.010634  L 98.534309 122.974515  L 99.996302 123.007703  L 101.690688 123.056558  L 103.172433 123.071432  L 104.052428 123.038306  L 104.154237 122.977946  L 103.579784 122.919289  L 102.642276 122.873914  L 101.702041 122.829968  L 100.996348 122.761931  L 100.571777 122.65056  L 100.343305 122.500924  L 100.200905 122.341752  L 100.06691 122.200485  L 99.868202 122.074615  L 99.486252 121.934602  L 98.758442 121.768434  L 97.550061 121.632042  L 95.827063 121.652598  L 93.671648 121.970737  L 91.234503 122.662423  L 88.669487 123.695043  L 86.093816 124.938005  L 83.586403 126.209617  L 81.220299 127.337034  L 79.09929 128.210722  L 77.351106 128.81078  L 76.052037 129.190352  L 75.134739 129.425689  L 74.371399 129.572211  L 73.486465 129.659957  L 72.331913 129.719048  L 70.989195 129.79963  L 69.707885 129.96087  L 68.720069 130.238451  L 68.071647 130.620246  L 67.588163 131.048079  L 66.976226 131.448059  L 65.961684 131.770603  L 64.371923 132.012717  L 62.148522 132.206958  L 59.347042 132.389421  L 56.148266 132.577561  L 52.847751 132.771152  L 49.787424 132.96502  L 47.249013 133.15365  " clip-path="url(#p56d52d2f04)" style="fill: none; stroke: #ad8301; stroke-opacity: 0.15; stroke-width: 0.55; stroke-linecap: round"/>
      </g>
      <g id="direction-180-projection.x-trajectory-projection" data-role="x-trajectory-projection" data-series="direction-180-projection" data-kind="line">
        <path d="M 103.673375 138.832876  L 104.462936 138.731337  L 105.052465 138.504649  L 105.166089 138.117374  L 104.578294 137.572816  L 103.204755 136.925842  L 101.142708 136.270854  L 98.629003 135.707995  L 95.92984 135.304555  L 93.227221 135.07135  L 90.575001 134.964223  L 87.948973 134.909233  L 85.331633 134.836545  L 82.756404 134.704313  L 80.28014 134.502614  L 77.936403 134.243938  L 75.734253 133.952812  L 73.702148 133.659097  L 71.914846 133.391863  L 70.459159 133.173044  L 69.377421 133.019558  L 68.64491 132.951977  L 68.188179 132.993964  L 67.904348 133.153433  L 67.663921 133.403397  L 67.330075 133.695135  L 66.821794 134.002749  L 66.191044 134.359163  L 65.657638 134.845326  L 65.573509 135.539423  L 66.32563 136.46996  L 68.19808 137.605016  L 71.232437 138.869182  L 75.164013 140.168845  L 79.492741 141.415138  L 83.665292 142.541345  L 87.242701 143.501717  L 89.958775 144.25027  L 91.69752 144.722282  L 92.483244 144.845257  L 92.500545 144.582761  L 92.07505 143.981256  L 91.571534 143.180418  L 91.249979 142.363921  L 91.17665 141.678872  L 91.233675 141.177487  L 91.213222 140.819025  L 90.948799 140.518212  L 90.427117 140.198118  L 89.818482 139.820559  L 89.394479 139.392789  L 89.378176 138.957477  L 89.829386 138.567692  L 90.634328 138.25772  L 91.579872 138.02563  L 92.445055 137.839989  L 93.070528 137.659681  L 93.402238 137.454986  L 93.49656 137.222162  L 93.461839 136.98936  L 93.365727 136.805825  L 93.194018 136.717608  L 92.909067 136.74906  L 92.552058 136.904765  L 92.275202 137.179695  L 92.260909 137.557628  L 92.598135 138.000274  L 93.205139 138.444228  L 93.850248 138.815623  L 94.260738 139.048708  L 94.269062 139.096814  L 93.902482 138.938997  L 93.349544 138.593898  L 92.831718 138.133649  L 92.487536 137.672125  L 92.357771 137.321356  L 92.441488 137.142268  L 92.737003 137.133638  L 93.230569 137.265666  L 93.873195 137.519755  L 94.587807 137.890226  L 95.296084 138.350211  L 95.941371 138.829033  L 96.499896 139.233783  L 96.976265 139.494565  L 97.376556 139.5883  L 97.666992 139.52718  L 97.753583 139.338933  L 97.508923 139.057385  L 96.822715 138.713006  L 95.63664 138.314778  L 93.950841 137.840308  L 91.828761 137.253226  L 89.403275 136.533485  L 86.860551 135.698859  L 84.390367 134.816221  L 82.122874 134.004825  L 80.107916 133.417014  L 78.352149 133.182154  L 76.86447 133.336105  L 75.648602 133.786347  L 74.647762 134.342515  L 73.730281 134.801874  L 72.768411 135.038939  L 71.756676 135.055872  L 70.831804 134.961844  L 70.141563 134.894038  L 69.67701 134.933814  L 69.242772 135.080409  L 68.599157 135.294731  L 67.637709 135.558446  L 66.434427 135.891332  L 65.162302 136.31839  L 63.96468 136.828597  L 62.888473 137.366083  L 61.898028 137.857806  L 60.931893 138.249396  L 59.962279 138.523443  L 59.021613 138.694511  L 58.183975 138.791833  " clip-path="url(#p56d52d2f04)" style="fill: none; stroke: #bc5215; stroke-opacity: 0.15; stroke-width: 0.55; stroke-linecap: round"/>
      </g>
      <g id="direction-225-projection.x-trajectory-projection" data-role="x-trajectory-projection" data-series="direction-225-projection" data-kind="line">
        <path d="M 116.573121 134.220289  L 116.292452 133.773021  L 115.61465 133.451724  L 114.22432 133.283336  L 111.814179 133.212274  L 108.259059 133.142237  L 103.777693 133.01607  L 98.952528 132.876399  L 94.529794 132.8522  L 91.069125 133.066104  L 88.661054 133.526473  L 86.923094 134.097164  L 85.285671 134.575221  L 83.358011 134.818575  L 81.108261 134.828731  L 78.761367 134.734662  L 76.546326 134.699628  L 74.520371 134.824056  L 72.595865 135.107525  L 70.683395 135.48034  L 68.784407 135.862013  L 66.954976 136.199494  L 65.225026 136.47096  L 63.577545 136.674688  L 62.017212 136.823115  L 60.661155 136.943289  L 59.768263 137.0729  L 59.682338 137.248491  L 60.712991 137.494863  L 63.010534 137.828733  L 66.494698 138.273626  L 70.87214 138.866859  L 75.739703 139.643379  L 80.742488 140.614349  L 85.703217 141.765371  L 90.650695 143.07986  L 95.716024 144.555898  L 100.967285 146.188145  L 106.285136 147.922623  L 111.353354 149.629453  L 115.75712 151.12529  L 119.134083 152.238716  L 121.309377 152.885216  L 122.350586 153.104356  L 122.510376 153.028109  L 122.09058 152.794742  L 121.333833 152.471244  L 120.412575 152.042745  L 119.475804 151.465955  L 118.668945 150.732874  L 118.101809 149.89255  L 117.816857 149.025206  L 117.803708 148.200566  L 118.03982 147.454619  L 118.500344 146.802208  L 119.144857 146.27272  L 119.918833 145.931363  L 120.782071 145.851129  L 121.708474 146.046257  L 122.630764 146.421712  L 123.380279 146.791347  L 123.710972 146.962478  L 123.412507 146.826811  L 122.442126 146.390774  L 120.990163 145.741152  L 119.44082 144.992485  L 118.230977 144.260646  L 117.65303 143.657565  L 117.716795 143.279046  L 118.193322 143.180174  L 118.834152 143.35831  L 119.57319 143.756659  L 120.517565 144.27935  L 121.731891 144.80043  L 123.046302 145.177353  L 124.092392 145.285979  L 124.534117 145.075789  L 124.281548 144.60735  L 123.518714 144.032522  L 122.560094 143.51528  L 121.666535 143.140048  L 120.950188 142.870895  L 120.407345 142.595616  L 120.017381 142.226343  L 119.791215 141.778287  L 119.722526 141.358271  L 119.722095 141.070363  L 119.638193 140.92116  L 119.3675 140.811794  L 118.932709 140.620864  L 118.429055 140.294967  L 117.868611 139.864877  L 117.063693 139.386394  L 115.666533 138.880851  L 113.361441 138.339808  L 110.061747 137.778824  L 105.962075 137.272991  L 101.415344 136.924566  L 96.765107 136.786375  L 92.27194 136.812633  L 88.139384 136.887605  L 84.540622 136.914774  L 81.569826 136.887219  L 79.178543 136.87751  L 77.199893 136.957923  L 75.478487 137.127949  L 73.998069 137.311234  L 72.874212 137.416652  L 72.196156 137.399  L 71.84582 137.271832  L 71.472406 137.079499  L 70.67759 136.871055  L 69.287099 136.694589  L 67.501059 136.601397  L 65.806112 136.639435  L 64.715759 136.836042  L 64.518166 137.182742  L 65.172866 137.635222  L 66.381375 138.128854  L 67.752134 138.598652  " clip-path="url(#p56d52d2f04)" style="fill: none; stroke: #af3029; stroke-opacity: 0.15; stroke-width: 0.55; stroke-linecap: round"/>
      </g>
      <g id="direction-270-projection.x-trajectory-projection" data-role="x-trajectory-projection" data-series="direction-270-projection" data-kind="line">
        <path d="M 111.893259 135.563022  L 111.375155 134.917431  L 110.1773 134.275281  L 108.188304 133.697217  L 105.471001 133.217309  L 102.232732 132.845155  L 98.734246 132.576089  L 95.207961 132.403549  L 91.83465 132.326659  L 88.762435 132.350829  L 86.109264 132.47957  L 83.920713 132.700654  L 82.128686 132.977118  L 80.574889 133.255231  L 79.094717 133.493057  L 77.58734 133.689211  L 76.022391 133.88685  L 74.409558 134.145907  L 72.788984 134.506129  L 71.248632 134.969004  L 69.923985 135.505958  L 68.949733 136.079519  L 68.382335 136.660145  L 68.151438 137.23288  L 68.09372 137.79715  L 68.074203 138.367171  L 68.11964 138.969686  L 68.447201 139.632738  L 69.347919 140.361582  L 71.010935 141.122376  L 73.445172 141.860081  L 76.560383 142.552487  L 80.315806 143.262602  L 84.779943 144.137922  L 90.040464 145.341753  L 96.048105 146.953704  L 102.530545 148.902429  L 109.043023 150.976743  L 115.115348 152.909571  L 120.405812 154.486567  L 124.775812 155.61195  L 128.254107 156.29567  L 130.921236 156.586776  L 132.796785 156.517076  L 133.812488 156.098551  L 133.885704 155.358596  L 133.023028 154.364853  L 131.36963 153.21861  L 129.183759 152.032369  L 126.765534 150.908729  L 124.394223 149.921142  L 122.293535 149.100007  L 120.63506 148.439019  L 119.561434 147.920334  L 119.185944 147.534051  L 119.531696 147.274438  L 120.446251 147.126075  L 121.598061 147.063493  L 122.607536 147.061836  L 123.222298 147.100574  L 123.381423 147.154766  L 123.140283 147.192611  L 122.566797 147.183888  L 121.728985 147.110328  L 120.755235 146.968478  L 119.857276 146.776393  L 119.263862 146.59034  L 119.124134 146.511014  L 119.47016 146.651245  L 120.25081 147.068681  L 121.379683 147.715468  L 122.74333 148.452519  L 124.18972 149.124296  L 125.556333 149.639683  L 126.742753 150.001782  L 127.745309 150.27187  L 128.588896 150.501872  L 129.20808 150.685795  L 129.402321 150.756625  L 128.925831 150.616295  L 127.648769 150.178087  L 125.690122 149.408665  L 123.449905 148.361606  L 121.517982 147.189658  L 120.461036 146.113225  L 120.575225 145.349071  L 121.749368 145.029085  L 123.535908 145.152268  L 125.362679 145.588087  L 126.708386 146.113527  L 127.143372 146.457651  L 126.300617 146.347797  L 123.901546 145.569971  L 119.868026 144.042632  L 114.428579 141.873246  L 108.113765 139.35476  L 101.611891 136.882878  L 95.547329 134.822415  L 90.294634 133.386769  L 85.927358 132.591455  L 82.318055 132.298718  L 79.295029 132.309865  L 76.723464 132.447027  L 74.483528 132.594947  L 72.431819 132.708764  L 70.438748 132.807327  L 68.473932 132.953601  L 66.629888 133.220233  L 65.024018 133.647088  L 63.665743 134.21583  L 62.421143 134.861914  L 61.114018 135.515237  L 59.66699 136.130139  L 58.158828 136.682129  L 56.75423 137.147218  L 55.574152 137.495671  L 54.615328 137.70739  L 53.779478 137.789008  L 52.974105 137.773816  L 52.190028 137.707118  " clip-path="url(#p56d52d2f04)" style="fill: none; stroke: #a02f6f; stroke-opacity: 0.15; stroke-width: 0.55; stroke-linecap: round"/>
      </g>
      <g id="direction-315-projection.x-trajectory-projection" data-role="x-trajectory-projection" data-series="direction-315-projection" data-kind="line">
        <path d="M 125.828821 134.659515  L 122.161669 134.383328  L 117.828704 134.189003  L 113.206662 134.115722  L 108.746799 134.159076  L 104.833163 134.29051  L 101.625167 134.488371  L 98.973096 134.745358  L 96.486638 135.049884  L 93.734657 135.368797  L 90.454909 135.653492  L 86.65236 135.857884  L 82.564841 135.951209  L 78.553928 135.927739  L 74.989627 135.81709  L 72.158884 135.682378  L 70.207961 135.590752  L 69.10792 135.568996  L 68.646431 135.581664  L 68.462197 135.550912  L 68.154793 135.403113  L 67.448612 135.1099  L 66.319289 134.703872  L 64.996963 134.271762  L 63.837064 133.927211  L 63.150844 133.77055  L 63.103424 133.849487  L 63.726801 134.142395  L 65.014765 134.574418  L 67.023235 135.045072  L 69.908793 135.440655  L 73.866944 135.63136  L 78.993481 135.489573  L 85.144714 134.946874  L 91.893403 134.056583  L 98.634776 132.99583  L 104.795592 131.980567  L 110.025555 131.148682  L 114.258924 130.497689  L 117.627061 129.923282  L 120.303212 129.319557  L 122.386031 128.657836  L 123.878374 127.982975  L 124.741066 127.34285  L 124.963578 126.721742  L 124.619715 126.044225  L 123.886468 125.244226  L 123.019915 124.331334  L 122.284539 123.394857  L 121.861266 122.547899  L 121.794036 121.870836  L 122.020048 121.398037  L 122.463072 121.138648  L 123.087956 121.08598  L 123.850638 121.197276  L 124.604679 121.370775  L 125.097092 121.462182  L 125.104058 121.341823  L 124.5928 120.951324  L 123.754032 120.319128  L 122.863182 119.532371  L 122.108728 118.699069  L 121.527958 117.921497  L 121.079564 117.281155  L 120.746899 116.826886  L 120.56433 116.569995  L 120.557042 116.490637  L 120.689762 116.546986  L 120.886753 116.679394  L 121.089716 116.81586  L 121.276901 116.891995  L 121.433056 116.876942  L 121.525492 116.783487  L 121.514938 116.645714  L 121.390791 116.483105  L 121.196628 116.279066  L 121.028301 115.990312  L 120.993527 115.578365  L 121.146919 115.042195  L 121.445259 114.434148  L 121.776494 113.849097  L 122.045256 113.38841  L 122.239521 113.118984  L 122.429556 113.050594  L 122.717009 113.140969  L 123.181493 113.315971  L 123.84361 113.485253  L 124.636395 113.550737  L 125.389017 113.420437  L 125.85711 113.038277  L 125.807282 112.420505  L 125.101883 111.672816  L 123.71684 110.968519  L 121.687187 110.489125  L 119.057727 110.36247  L 115.886599 110.629896  L 112.269433 111.252378  L 108.332778 112.138714  L 104.211098 113.178716  L 100.058578 114.278153  L 96.077399 115.386787  L 92.483632 116.500539  L 89.403773 117.627388  L 86.793078 118.740559  L 84.483479 119.765605  L 82.337666 120.615323  L 80.37553 121.240507  L 78.747005 121.650404  L 77.571886 121.887611  L 76.800676 121.994421  L 76.23398 122.009915  L 75.670914 121.999131  L 75.030312 122.074288  L 74.325122 122.367878  L 73.541106 122.963959  L 72.569315 123.838138  L 71.272296 124.859204  L 69.612219 125.852404  L 67.713817 126.676222  L 65.818298 127.266212  " clip-path="url(#p56d52d2f04)" style="fill: none; stroke: #5e409d; stroke-opacity: 0.15; stroke-width: 0.55; stroke-linecap: round"/>
      </g>
      <g id="direction-315-offset.x-stimulus-offset" data-role="x-stimulus-offset" data-series="direction-315-offset" data-kind="shape">
        <defs>
          <path id="m0e15b6ad24" d="M -1.732051 1.732051  L 1.732051 1.732051  L 1.732051 -1.732051  L -1.732051 -1.732051  z " style="stroke: #ffffff; stroke-width: 0.35"/>
        </defs>
        <g clip-path="url(#p56d52d2f04)">
          <use xlink:href="#m0e15b6ad24" x="125.807282" y="76.744064" style="fill: #5e409d; stroke: #ffffff; stroke-width: 0.35"/>
        </g>
      </g>
      <g id="direction-0-baseline.x-population-trajectory" data-role="x-population-trajectory" data-series="direction-0-baseline" data-kind="line">
        <path d="M 109.697207 105.010969  L 107.901679 104.156668  L 105.713833 103.081825  L 103.219764 101.765792  L 100.523043 100.212713  L 97.725 98.46865  L 94.920577 96.612583  L 92.208706 94.73381  L 89.702691 92.929882  L 87.516163 91.327996  L 85.721499 90.088357  L 84.313873 89.35603  L 83.217589 89.185305  L 82.336618 89.503466  L 81.60203 90.153752  L 80.965324 90.981995  L 80.346369 91.898373  L 79.596144 92.877595  L 78.526639 93.917623  L 77.008714 95.00136  L 75.072946 96.072848  L 72.938234 97.030473  L 70.930512 97.727655  L 69.328716 97.9977  L 68.240045 97.720836  L 67.590322 96.906546  L 67.230003 95.737297  L 67.074606 94.543242  L 67.181372 93.732229  L 67.723494 93.704312  L 68.894392 94.753456  " clip-path="url(#p56d52d2f04)" style="fill: none; stroke: #205ea6; stroke-opacity: 0.32; stroke-width: 0.65; stroke-linecap: round"/>
      </g>
      <g id="direction-0-recovery.x-population-trajectory" data-role="x-population-trajectory" data-series="direction-0-recovery" data-kind="line">
        <path d="M 104.731694 121.87445  L 104.47383 120.888572  L 103.485614 119.353175  L 101.748974 117.113569  L 99.454488 113.993671  L 96.915116 109.963256  L 94.407312 105.284996  L 92.02519 100.48933  L 89.65963 96.168544  L 87.12565 92.731554  L 84.347084 90.285723  L 81.459683 88.691051  L 78.766295 87.72193  L 76.596342 87.215001  L 75.164636 87.119382  L 74.4929 87.439638  L 74.409764 88.139518  L 74.618402 89.098443  L 74.798253 90.141639  L 74.708871 91.107556  L 74.251715 91.880504  L 73.470605 92.372105  L 72.482956 92.477474  L 71.385463 92.061833  L 70.201697 91.007702  L 68.917749 89.308054  L 67.561754 87.135559  L 66.233039 84.809777  L 65.05653 82.668318  L 64.114272 80.93424  L 63.421098 79.670362  " clip-path="url(#p56d52d2f04)" style="fill: none; stroke: #205ea6; stroke-opacity: 0.42; stroke-width: 0.65; stroke-linecap: round"/>
      </g>
      <g id="direction-45-baseline.x-population-trajectory" data-role="x-population-trajectory" data-series="direction-45-baseline" data-kind="line">
        <path d="M 107.404096 101.468496  L 106.847499 101.156503  L 105.89964 100.738379  L 104.651696 100.180408  L 103.217405 99.403063  L 101.592153 98.311174  L 99.613417 96.884231  L 97.086023 95.262652  L 93.973865 93.738089  L 90.484069 92.631118  L 86.971852 92.138406  L 83.760534 92.267539  L 81.031274 92.886264  L 78.844507 93.81314  L 77.207473 94.860817  L 76.093446 95.834784  L 75.408206 96.552602  L 74.971516 96.896437  L 74.55615 96.836261  L 73.961373 96.391927  L 73.077717 95.59556  L 71.920723 94.52464  L 70.624636 93.37047  L 69.38038 92.425926  L 68.341921 91.955843  L 67.566284 92.041706  L 67.037017 92.533908  L 66.749952 93.150197  L 66.811016 93.637037  L 67.507592 93.871052  L 69.320431 93.858562  " clip-path="url(#p56d52d2f04)" style="fill: none; stroke: #24837b; stroke-opacity: 0.32; stroke-width: 0.65; stroke-linecap: round"/>
      </g>
      <g id="direction-45-recovery.x-population-trajectory" data-role="x-population-trajectory" data-series="direction-45-recovery" data-kind="line">
        <path d="M 137.246735 71.724738  L 134.783126 70.007258  L 132.066006 68.314882  L 129.409256 67.050676  L 126.78176 66.524133  L 123.876699 66.777464  L 120.342688 67.589919  L 116.013184 68.64203  L 111.003324 69.696853  L 105.649067 70.672703  L 100.381285 71.596618  L 95.635767 72.525641  L 91.811802 73.512691  L 89.208951 74.613964  L 87.913234 75.881505  L 87.716412 77.311852  L 88.166248 78.792066  L 88.748029 80.108512  L 89.081243 81.033193  L 89.006334 81.446733  L 88.524064 81.405317  L 87.661791 81.095735  L 86.387747 80.712109  L 84.649186 80.351473  L 82.493081 80.003654  L 80.134765 79.61728  L 77.881959 79.167196  L 75.965026 78.679171  L 74.426983 78.215333  L 73.166555 77.844693  L 72.076189 77.6114  " clip-path="url(#p56d52d2f04)" style="fill: none; stroke: #24837b; stroke-opacity: 0.42; stroke-width: 0.65; stroke-linecap: round"/>
      </g>
      <g id="direction-90-baseline.x-population-trajectory" data-role="x-population-trajectory" data-series="direction-90-baseline" data-kind="line">
        <path d="M 106.344716 98.712909  L 105.791069 98.086556  L 104.860114 97.430946  L 103.427087 96.886032  L 101.447261 96.494621  L 98.982531 96.159819  L 96.158187 95.7121  L 93.098048 95.034944  L 89.910313 94.153586  L 86.73301 93.227971  L 83.766981 92.457684  L 81.234374 91.961155  L 79.284727 91.718025  L 77.927994 91.618164  L 77.052253 91.567189  L 76.498563 91.555391  L 76.121633 91.643331  L 75.793712 91.90105  L 75.385205 92.371348  L 74.789471 93.073732  L 73.99495 94.010612  L 73.130458 95.150316  L 72.404409 96.403615  L 71.963783 97.625482  L 71.791403 98.646993  L 71.737371 99.327131  L 71.66026 99.610646  L 71.558632 99.566527  L 71.605034 99.369713  L 72.091881 99.237459  L 73.349882 99.379741  " clip-path="url(#p56d52d2f04)" style="fill: none; stroke: #228833; stroke-opacity: 0.32; stroke-width: 0.65; stroke-linecap: round"/>
      </g>
      <g id="direction-90-recovery.x-population-trajectory" data-role="x-population-trajectory" data-series="direction-90-recovery" data-kind="line">
        <path d="M 113.381822 89.028214  L 114.969459 89.016611  L 116.143763 89.070144  L 116.330038 88.946913  L 115.19808 88.558883  L 112.748397 87.978878  L 109.245303 87.352709  L 105.032744 86.800869  L 100.372785 86.380456  L 95.420787 86.095737  L 90.334657 85.920634  L 85.381994 85.805308  L 80.914252 85.659915  L 77.219482 85.340513  L 74.391566 84.672555  L 72.335144 83.526328  L 70.87445 81.903601  L 69.843655 79.965781  L 69.097793 77.981122  L 68.490798 76.233275  L 67.882922 74.953741  L 67.159605 74.286509  L 66.226816 74.256994  L 65.000895 74.74684  L 63.437876 75.522231  L 61.592528 76.340194  L 59.635616 77.067343  L 57.792557 77.714408  L 56.255721 78.366336  L 55.127324 79.077771  L 54.413382 79.821612  " clip-path="url(#p56d52d2f04)" style="fill: none; stroke: #228833; stroke-opacity: 0.42; stroke-width: 0.65; stroke-linecap: round"/>
      </g>
      <g id="direction-135-baseline.x-population-trajectory" data-role="x-population-trajectory" data-series="direction-135-baseline" data-kind="line">
        <path d="M 111.879614 102.610374  L 108.580575 101.332049  L 104.841874 99.758497  L 101.165081 98.036929  L 97.915386 96.348054  L 95.150892 94.823183  L 92.691536 93.4953  L 90.340788 92.331388  L 88.042715 91.318959  L 85.87597 90.513974  L 83.96671 90.009143  L 82.435751 89.874799  L 81.381348 90.138569  L 80.836784 90.798047  L 80.713382 91.81551  L 80.815191 93.094297  L 80.943682 94.478185  L 80.987167 95.793135  L 80.887723 96.898635  L 80.531538 97.710924  L 79.713805 98.199103  L 78.238418 98.365303  L 76.064253 98.233419  L 73.371051 97.858794  L 70.510685 97.355123  L 67.896136 96.901505  L 65.891728 96.698831  L 64.747293 96.886923  L 64.58898 97.483665  L 65.446265 98.388079  L 67.266534 99.446051  " clip-path="url(#p56d52d2f04)" style="fill: none; stroke: #ad8301; stroke-opacity: 0.32; stroke-width: 0.65; stroke-linecap: round"/>
      </g>
      <g id="direction-135-recovery.x-population-trajectory" data-role="x-population-trajectory" data-series="direction-135-recovery" data-kind="line">
        <path d="M 99.486252 86.255782  L 98.758442 85.476437  L 97.550061 84.753781  L 95.827063 84.307552  L 93.671648 84.348913  L 91.234503 84.964664  L 88.669487 86.056301  L 86.093816 87.364526  L 83.586403 88.556157  L 81.220299 89.336675  L 79.09929 89.552621  L 77.351106 89.237052  L 76.052037 88.576802  L 75.134739 87.821789  L 74.371399 87.191972  L 73.486465 86.831131  L 72.331913 86.799215  L 70.989195 87.081877  L 69.707885 87.599068  L 68.720069 88.221573  L 68.071647 88.797031  L 67.588163 89.183839  L 66.976226 89.293611  L 65.961684 89.131374  L 64.371923 88.807843  L 62.148522 88.501713  L 59.347042 88.384472  L 56.148266 88.555784  L 52.847751 89.020103  L 49.787424 89.699596  L 47.249013 90.465357  " clip-path="url(#p56d52d2f04)" style="fill: none; stroke: #ad8301; stroke-opacity: 0.42; stroke-width: 0.65; stroke-linecap: round"/>
      </g>
      <g id="direction-180-baseline.x-population-trajectory" data-role="x-population-trajectory" data-series="direction-180-baseline" data-kind="line">
        <path d="M 103.673375 105.871626  L 104.462936 104.917486  L 105.052465 103.720165  L 105.166089 102.366218  L 104.578294 100.989986  L 103.204755 99.73927  L 101.142708 98.724501  L 98.629003 97.976884  L 95.92984 97.446433  L 93.227221 97.045378  L 90.575001 96.699269  L 87.948973 96.362611  L 85.331633 95.997093  L 82.756404 95.549819  L 80.28014 94.972595  L 77.936403 94.270974  L 75.734253 93.534194  L 73.702148 92.892922  L 71.914846 92.426819  L 70.459159 92.105579  L 69.377421 91.831219  L 68.64491 91.550383  L 68.188179 91.316559  L 67.904348 91.230647  L 67.663921 91.323824  L 67.330075 91.523737  L 66.821794 91.759745  L 66.191044 92.106329  L 65.657638 92.816288  L 65.573509 94.201211  L 66.32563 96.457402  " clip-path="url(#p56d52d2f04)" style="fill: none; stroke: #bc5215; stroke-opacity: 0.32; stroke-width: 0.65; stroke-linecap: round"/>
      </g>
      <g id="direction-180-recovery.x-population-trajectory" data-role="x-population-trajectory" data-series="direction-180-recovery" data-kind="line">
        <path d="M 96.822715 126.822604  L 95.63664 126.077671  L 93.950841 124.947005  L 91.828761 123.307459  L 89.403275 121.201426  L 86.860551 118.835765  L 84.390367 116.492933  L 82.122874 114.446498  L 80.107916 112.915428  L 78.352149 112.020013  L 76.86447 111.722014  L 75.648602 111.793802  L 74.647762 111.864137  L 73.730281 111.552135  L 72.768411 110.632932  L 71.756676 109.156777  L 70.831804 107.424801  L 70.141563 105.815869  L 69.67701 104.584391  L 69.242772 103.790202  L 68.599157 103.393235  L 67.637709 103.375545  L 66.434427 103.756531  L 65.162302 104.502775  L 63.96468 105.457122  L 62.888473 106.368663  L 61.898028 106.997209  L 60.931893 107.205884  L 59.962279 106.996089  L 59.021613 106.487737  L 58.183975 105.860877  " clip-path="url(#p56d52d2f04)" style="fill: none; stroke: #bc5215; stroke-opacity: 0.42; stroke-width: 0.65; stroke-linecap: round"/>
      </g>
      <g id="direction-225-baseline.x-population-trajectory" data-role="x-population-trajectory" data-series="direction-225-baseline" data-kind="line">
        <path d="M 116.573121 99.470289  L 116.292452 98.054332  L 115.61465 96.79428  L 114.22432 95.841146  L 111.814179 95.206963  L 108.259059 94.775213  L 103.777693 94.382554  L 98.952528 93.932637  L 94.529794 93.467233  L 91.069125 93.130601  L 88.661054 93.042754  L 86.923094 93.194159  L 85.285671 93.459869  L 83.358011 93.720191  L 81.108261 93.973942  L 78.761367 94.336345  L 76.546326 94.917389  L 74.520371 95.691809  L 72.595865 96.481721  L 70.683395 97.074049  L 68.784407 97.361196  L 66.954976 97.377819  L 65.225026 97.224292  L 63.577545 96.978331  L 62.017212 96.682202  L 60.661155 96.384842  L 59.768263 96.164346  L 59.682338 96.096602  L 60.712991 96.204484  L 63.010534 96.440526  L 66.494698 96.712076  " clip-path="url(#p56d52d2f04)" style="fill: none; stroke: #af3029; stroke-opacity: 0.32; stroke-width: 0.65; stroke-linecap: round"/>
      </g>
      <g id="direction-225-recovery.x-population-trajectory" data-role="x-population-trajectory" data-series="direction-225-recovery" data-kind="line">
        <path d="M 118.932709 86.295908  L 118.429055 86.334957  L 117.868611 86.186158  L 117.063693 85.987314  L 115.666533 85.888828  L 113.361441 85.962902  L 110.061747 86.219565  L 105.962075 86.665603  L 101.415344 87.316192  L 96.765107 88.145203  L 92.27194 89.040544  L 88.139384 89.836616  L 84.540622 90.419954  L 81.569826 90.806289  L 79.178543 91.1025  L 77.199893 91.37217  L 75.478487 91.542887  L 73.998069 91.454016  L 72.874212 91.004918  L 72.196156 90.260336  L 71.84582 89.410015  L 71.472406 88.631514  L 70.67759 87.996028  L 69.287099 87.492548  L 67.501059 87.124046  L 65.806112 86.963529  L 64.715759 87.122609  L 64.518166 87.668687  L 65.172866 88.567014  L 66.381375 89.683348  L 67.752134 90.833167  " clip-path="url(#p56d52d2f04)" style="fill: none; stroke: #af3029; stroke-opacity: 0.42; stroke-width: 0.65; stroke-linecap: round"/>
      </g>
      <g id="direction-270-baseline.x-population-trajectory" data-role="x-population-trajectory" data-series="direction-270-baseline" data-kind="line">
        <path d="M 111.893259 103.057906  L 111.375155 100.575035  L 110.1773 98.041689  L 108.188304 95.756246  L 105.471001 93.915152  L 102.232732 92.582548  L 98.734246 91.730738  L 95.207961 91.302768  L 91.83465 91.248288  L 88.762435 91.524132  L 86.109264 92.080881  L 83.920713 92.846296  L 82.128686 93.707279  L 80.574889 94.503629  L 79.094717 95.067487  L 77.58734 95.298  L 76.022391 95.2088  L 74.409558 94.904883  L 72.788984 94.519217  L 71.248632 94.175039  L 69.923985 93.991438  L 68.949733 94.091415  L 68.382335 94.577368  L 68.151438 95.488661  L 68.09372 96.785332  L 68.074203 98.381979  L 68.11964 100.197676  L 68.447201 102.169997  L 69.347919 104.227394  L 71.010935 106.275949  L 73.445172 108.260022  " clip-path="url(#p56d52d2f04)" style="fill: none; stroke: #a02f6f; stroke-opacity: 0.32; stroke-width: 0.65; stroke-linecap: round"/>
      </g>
      <g id="direction-270-recovery.x-population-trajectory" data-role="x-population-trajectory" data-series="direction-270-recovery" data-kind="line">
        <path d="M 126.708386 133.212545  L 127.143372 134.661358  L 126.300617 134.698053  L 123.901546 132.928265  L 119.868026 129.369923  L 114.428579 124.420269  L 108.113765 118.738853  L 101.611891 113.076009  L 95.547329 108.085865  L 90.294634 104.179053  L 85.927358 101.467244  L 82.318055 99.812178  L 79.295029 98.92443  L 76.723464 98.449386  L 74.483528 98.037054  L 72.431819 97.420005  L 70.438748 96.503406  L 68.473932 95.40306  L 66.629888 94.373868  L 65.024018 93.647754  L 63.665743 93.296058  L 62.421143 93.229754  L 61.114018 93.327475  L 59.66699 93.557674  L 58.158828 93.980188  L 56.75423 94.644796  L 55.574152 95.491979  L 54.615328 96.345435  L 53.779478 97.000414  L 52.974105 97.337433  L 52.190028 97.376636  " clip-path="url(#p56d52d2f04)" style="fill: none; stroke: #a02f6f; stroke-opacity: 0.42; stroke-width: 0.65; stroke-linecap: round"/>
      </g>
      <g id="direction-315-baseline.x-population-trajectory" data-role="x-population-trajectory" data-series="direction-315-baseline" data-kind="line">
        <path d="M 125.828821 102.148043  L 122.161669 100.907566  L 117.828704 99.707692  L 113.206662 98.673449  L 108.746799 97.870488  L 104.833163 97.309646  L 101.625167 96.957512  L 98.973096 96.740278  L 96.486638 96.564036  L 93.734657 96.356877  L 90.454909 96.100998  L 86.65236 95.814521  L 82.564841 95.507812  L 78.553928 95.181208  L 74.989627 94.880191  L 72.158884 94.727908  L 70.207961 94.856607  L 69.10792 95.268409  L 68.646431 95.757011  L 68.462197 95.984168  L 68.154793 95.671498  L 67.448612 94.767796  L 66.319289 93.48168  L 64.996963 92.182319  L 63.837064 91.232383  L 63.150844 90.837958  L 63.103424 90.985238  L 63.726801 91.510677  L 65.014765 92.264269  L 67.023235 93.223315  L 69.908793 94.437684  " clip-path="url(#p56d52d2f04)" style="fill: none; stroke: #5e409d; stroke-opacity: 0.32; stroke-width: 0.65; stroke-linecap: round"/>
      </g>
      <g id="direction-315-recovery.x-population-trajectory" data-role="x-population-trajectory" data-series="direction-315-recovery" data-kind="line">
        <path d="M 125.85711 78.22319  L 125.807282 76.744064  L 125.101883 74.662974  L 123.71684 72.448045  L 121.687187 70.567565  L 119.057727 69.322296  L 115.886599 68.792418  L 112.269433 68.889992  L 108.332778 69.452075  L 104.211098 70.319451  L 100.058578 71.390563  L 96.077399 72.624308  L 92.483632 73.97896  L 89.403773 75.321358  L 86.793078 76.399513  L 84.483479 76.941737  L 82.337666 76.818245  L 80.37553 76.127336  L 78.747005 75.128765  L 77.571886 74.078063  L 76.800676 73.109463  L 76.23398 72.253087  L 75.670914 71.545004  L 75.030312 71.113795  L 74.325122 71.155898  L 73.541106 71.814028  L 72.569315 73.053888  L 71.272296 74.641611  L 69.612219 76.244309  L 67.713817 77.57737  L 65.818298 78.505267  " clip-path="url(#p56d52d2f04)" style="fill: none; stroke: #5e409d; stroke-opacity: 0.42; stroke-width: 0.65; stroke-linecap: round"/>
      </g>
      <g id="direction-135-offset.x-stimulus-offset" data-role="x-stimulus-offset" data-series="direction-135-offset" data-kind="shape">
        <defs>
          <path id="m88fa3b678d" d="M -1.732051 1.732051  L 1.732051 1.732051  L 1.732051 -1.732051  L -1.732051 -1.732051  z " style="stroke: #ffffff; stroke-width: 0.35"/>
        </defs>
        <g clip-path="url(#p56d52d2f04)">
          <use xlink:href="#m88fa3b678d" x="98.758442" y="85.476437" style="fill: #ad8301; stroke: #ffffff; stroke-width: 0.35"/>
        </g>
      </g>
      <g id="direction-90-offset.x-stimulus-offset" data-role="x-stimulus-offset" data-series="direction-90-offset" data-kind="shape">
        <defs>
          <path id="m459692ece2" d="M -1.732051 1.732051  L 1.732051 1.732051  L 1.732051 -1.732051  L -1.732051 -1.732051  z " style="stroke: #ffffff; stroke-width: 0.35"/>
        </defs>
        <g clip-path="url(#p56d52d2f04)">
          <use xlink:href="#m459692ece2" x="114.969459" y="89.016611" style="fill: #228833; stroke: #ffffff; stroke-width: 0.35"/>
        </g>
      </g>
      <g id="direction-0-stimulus.x-population-trajectory" data-role="x-population-trajectory" data-series="direction-0-stimulus" data-kind="line">
        <path d="M 68.894392 94.753456  L 70.801095 96.960537  L 73.396516 100.119961  L 76.48333 103.770863  L 79.791595 107.342433  L 83.08821 110.360112  L 86.246841 112.62086  L 89.238096 114.258557  L 92.062582 115.642006  L 94.686719 117.137551  L 97.02149 118.872835  L 98.957632 120.677916  L 100.422815 122.230703  L 101.413032 123.269791  L 101.976734 123.699598  L 102.171115 123.557464  L 102.049164 122.932378  L 101.693644 121.924232  L 101.256334 120.656219  L 100.951172 119.302562  L 100.980791 118.090869  L 101.441377 117.247536  L 102.267997 116.893884  L 103.270837 116.963484  L 104.243279 117.225067  L 105.074803 117.434648  L 105.791429 117.510207  L 106.502599 117.585989  L 107.303284 117.890022  L 108.203723 118.550861  L 109.130672 119.490593  L 109.959725 120.459317  L 110.528141 121.138316  L 110.633142 121.227726  L 110.089958 120.530831  L 108.86374 119.071946  L 107.168832 117.184205  L 105.410256 115.432841  L 103.993383 114.35159  L 103.157703 114.16571  L 102.942153 114.717873  L 103.24471 115.625581  L 103.873256 116.525788  L 104.569739 117.239492  L 105.05371 117.798604  L 105.115888 118.359776  L 104.702137 119.05683  L 103.930491 119.879795  L 103.029745 120.662825  L 102.242026 121.198392  L 101.739126 121.387085  L 101.577341 121.309012  L 101.70493 121.171199  L 102.011925 121.176217  L 102.403227 121.412757  L 102.845276 121.820774  L 103.354451 122.239263  L 103.926103 122.479345  L 104.45865 122.388123  L 104.731694 121.87445  L 104.47383 120.888572  " clip-path="url(#p56d52d2f04)" style="fill: none; stroke: #205ea6; stroke-width: 1.45; stroke-linecap: round"/>
      </g>
      <g id="direction-45-stimulus.x-population-trajectory" data-role="x-population-trajectory" data-series="direction-45-stimulus" data-kind="line">
        <path d="M 69.320431 93.858562  L 72.81461 93.695618  L 78.410755 93.551109  L 86.152477 93.652976  L 95.621258 94.205791  L 106.055234 95.247892  L 116.570869 96.57624  L 126.352228 97.83852  L 134.739262 98.730567  L 141.25881 99.129718  L 145.666889 99.065891  L 148.010304 98.594748  L 148.636526 97.710434  L 148.085125 96.378937  L 146.881261 94.65066  L 145.352354 92.732345  L 143.601101 90.931174  L 141.663673 89.49752  L 139.727846 88.492367  L 138.208028 87.790153  L 137.573917 87.206138  L 138.036622 86.613757  L 139.350867 85.962634  L 140.909306 85.227563  L 142.069451 84.397924  L 142.470429 83.533049  L 142.114543 82.79782  L 141.200432 82.383082  L 139.893171 82.358381  L 138.238902 82.595914  L 136.26534 82.846561  L 134.133227 82.89619  L 132.170034 82.666983  L 130.756293 82.208598  L 130.182052 81.622647  L 130.590711 80.998007  L 132.006077 80.389678  L 134.351388 79.831285  L 137.420934 79.360985  L 140.855744 79.036884  L 144.194867 78.918783  L 146.986246 79.0148  L 148.878149 79.231451  L 149.643072 79.382886  L 149.168225 79.283934  L 147.481651 78.868632  L 144.816871 78.238585  L 141.635829 77.593067  L 138.526838 77.101776  L 136.008465 76.824701  L 134.371161 76.722792  L 133.660813 76.711402  L 133.785587 76.695323  L 134.619516 76.582448  L 135.994148 76.302017  L 137.60497 75.828621  L 138.968083 75.170119  L 139.539155 74.311733  L 138.958736 73.184135  L 137.246735 71.724738  L 134.783126 70.007258  " clip-path="url(#p56d52d2f04)" style="fill: none; stroke: #24837b; stroke-width: 1.45; stroke-linecap: round"/>
      </g>
      <g id="direction-90-stimulus.x-population-trajectory" data-role="x-population-trajectory" data-series="direction-90-stimulus" data-kind="line">
        <path d="M 73.349882 99.379741  L 75.673188 100.001035  L 79.244957 101.32196  L 84.052569 103.535098  L 89.813778 106.673496  L 95.960745 110.479695  L 101.731364 114.39591  L 106.373104 117.721161  L 109.385385 119.855415  L 110.671555 120.499134  L 110.517004 119.72251  L 109.428756 117.890632  L 107.942699 115.491256  L 106.488521 112.957338  L 105.346169 110.575351  L 104.682097 108.504777  L 104.614662 106.852274  L 105.238897 105.711551  L 106.596111 105.127163  L 108.615893 105.0351  L 111.06985 105.253795  L 113.560217 105.541556  L 115.579299 105.677859  L 116.667506 105.512767  L 116.616168 104.985927  L 115.570406 104.12798  L 113.933596 103.053348  L 112.14106 101.93096  L 110.478263 100.936732  L 109.061685 100.22593  L 107.937429 99.940885  L 107.175651 100.210386  L 106.887166 101.101592  L 107.167675 102.550227  L 108.025244 104.338255  L 109.325629 106.14088  L 110.788286 107.61232  L 112.055686 108.465233  L 112.826917 108.532277  L 112.990461 107.796787  L 112.66457 106.377998  L 112.119663 104.473453  L 111.633127 102.291262  L 111.372895 100.014179  L 111.372484 97.808559  L 111.593279 95.864059  L 112.008106 94.411478  L 112.63357 93.659988  L 113.480535 93.673942  L 114.461563 94.285149  L 115.3438 95.12869  L 115.818304 95.782149  L 115.657529 95.923392  L 114.847281 95.423687  L 113.612852 94.355336  L 112.340915 92.936215  L 111.458686 91.455161  L 111.305069 90.19868  L 112.00486 89.373963  L 113.381822 89.028214  L 114.969459 89.016611  " clip-path="url(#p56d52d2f04)" style="fill: none; stroke: #228833; stroke-width: 1.45; stroke-linecap: round"/>
      </g>
      <g id="direction-135-stimulus.x-population-trajectory" data-role="x-population-trajectory" data-series="direction-135-stimulus" data-kind="line">
        <path d="M 67.266534 99.446051  L 69.904145 100.519032  L 73.118448 101.509607  L 76.622065 102.339153  L 80.166979 102.918366  L 83.610822 103.160661  L 86.916682 103.039261  L 90.084146 102.63756  L 93.062047 102.136647  L 95.719765 101.745324  L 97.905716 101.617737  L 99.540894 101.802402  L 100.651633 102.23328  L 101.31783 102.753764  L 101.606976 103.166969  L 101.58455 103.301539  L 101.38692 103.087118  L 101.24211 102.598846  L 101.359829 102.034732  L 101.763894 101.610674  L 102.243714 101.434843  L 102.498286 101.44542  L 102.355494 101.469209  L 101.871261 101.349136  L 101.240115 101.029316  L 100.633888 100.53148  L 100.123575 99.872825  L 99.712526 99.034163  L 99.391642 98.017849  L 99.138707 96.92179  L 98.885127 95.931046  L 98.523156 95.204975  L 97.975957 94.756526  L 97.283182 94.443071  L 96.619876 94.081872  L 96.223712 93.589906  L 96.255098 93.026769  L 96.676617 92.509229  L 97.242616 92.089621  L 97.637718 91.703085  L 97.686344 91.228871  L 97.481772 90.611106  L 97.342083 89.937456  L 97.626249 89.398231  L 98.534309 89.153523  L 99.996302 89.213931  L 101.690688 89.433258  L 103.172433 89.613515  L 104.052428 89.629406  L 104.154237 89.481022  L 103.579784 89.255253  L 102.642276 89.044942  L 101.702041 88.890959  L 100.996348 88.7684  L 100.571777 88.614538  L 100.343305 88.371567  L 100.200905 88.01402  L 100.06691 87.542504  L 99.868202 86.957383  L 99.486252 86.255782  L 98.758442 85.476437  " clip-path="url(#p56d52d2f04)" style="fill: none; stroke: #ad8301; stroke-width: 1.45; stroke-linecap: round"/>
      </g>
      <g id="direction-180-stimulus.x-population-trajectory" data-role="x-population-trajectory" data-series="direction-180-stimulus" data-kind="line">
        <path d="M 66.32563 96.457402  L 68.19808 99.565974  L 71.232437 103.305428  L 75.164013 107.342306  L 79.492741 111.341396  L 83.665292 115.047284  L 87.242701 118.30514  L 89.958775 121.024514  L 91.69752 123.129737  L 92.483244 124.539076  L 92.500545 125.187337  L 92.07505 125.082329  L 91.571534 124.3607  L 91.249979 123.289106  L 91.17665 122.191462  L 91.233675 121.335205  L 91.213222 120.844299  L 90.948799 120.677403  L 90.427117 120.671765  L 89.818482 120.623398  L 89.394479 120.37098  L 89.378176 119.851038  L 89.829386 119.103822  L 90.634328 118.240713  L 91.579872 117.387528  L 92.445055 116.634027  L 93.070528 116.006441  L 93.402238 115.474558  L 93.49656 114.986955  L 93.461839 114.515592  L 93.365727 114.080685  L 93.194018 113.743617  L 92.909067 113.583771  L 92.552058 113.690469  L 92.275202 114.161037  L 92.260909 115.06891  L 92.598135 116.397233  L 93.205139 117.983273  L 93.850248 119.53949  L 94.260738 120.75427  L 94.269062 121.415423  L 93.902482 121.487765  L 93.349544 121.133885  L 92.831718 120.68254  L 92.487536 120.525038  L 92.357771 120.947948  L 92.441488 121.981887  L 92.737003 123.389771  L 93.230569 124.822098  L 93.873195 126.020401  L 94.587807 126.914891  L 95.296084 127.5643  L 95.941371 128.036855  L 96.499896 128.347132  L 96.976265 128.474689  L 97.376556 128.40888  L 97.666992 128.170484  L 97.753583 127.806446  L 97.508923 127.361144  L 96.822715 126.822604  L 95.63664 126.077671  " clip-path="url(#p56d52d2f04)" style="fill: none; stroke: #bc5215; stroke-width: 1.45; stroke-linecap: round"/>
      </g>
      <g id="direction-225-stimulus.x-population-trajectory" data-role="x-population-trajectory" data-series="direction-225-stimulus" data-kind="line">
        <path d="M 66.494698 96.712076  L 70.87214 96.924055  L 75.739703 97.016452  L 80.742488 97.003161  L 85.703217 97.011161  L 90.650695 97.288474  L 95.716024 98.115903  L 100.967285 99.630497  L 106.285136 101.669761  L 111.353354 103.789855  L 115.75712 105.474337  L 119.134083 106.397442  L 121.309377 106.575268  L 122.350586 106.32056  L 122.510376 106.034992  L 122.09058 105.950664  L 121.333833 105.985988  L 120.412575 105.814561  L 119.475804 105.101119  L 118.668945 103.727865  L 118.101809 101.863617  L 117.816857 99.869246  L 117.803708 98.132425  L 118.03982 96.915846  L 118.500344 96.273936  L 119.144857 96.077257  L 119.918833 96.135136  L 120.782071 96.327035  L 121.708474 96.629862  L 122.630764 97.025772  L 123.380279 97.396682  L 123.710972 97.530083  L 123.412507 97.239711  L 122.442126 96.484946  L 120.990163 95.389428  L 119.44082 94.168868  L 118.230977 93.040941  L 117.65303 92.162685  L 117.716795 91.594843  L 118.193322 91.291974  L 118.834152 91.133167  L 119.57319 90.990348  L 120.517565 90.793334  L 121.731891 90.538849  L 123.046302 90.249493  L 124.092392 89.936114  L 124.534117 89.611056  L 124.281548 89.330684  L 123.518714 89.201059  L 122.560094 89.305858  L 121.666535 89.598043  L 120.950188 89.853213  L 120.407345 89.761784  L 120.017381 89.135504  L 119.791215 88.077522  L 119.722526 86.959792  L 119.722095 86.1916  L 119.638193 85.950021  L 119.3675 86.089381  L 118.932709 86.295908  L 118.429055 86.334957  " clip-path="url(#p56d52d2f04)" style="fill: none; stroke: #af3029; stroke-width: 1.45; stroke-linecap: round"/>
      </g>
      <g id="direction-270-stimulus.x-population-trajectory" data-role="x-population-trajectory" data-series="direction-270-stimulus" data-kind="line">
        <path d="M 73.445172 108.260022  L 76.560383 110.265205  L 80.315806 112.56066  L 84.779943 115.508935  L 90.040464 119.388403  L 96.048105 124.232702  L 102.530545 129.76215  L 109.043023 135.438598  L 115.115348 140.628601  L 120.405812 144.822826  L 124.775812 147.796027  L 128.254107 149.603916  L 130.921236 150.437204  L 132.796785 150.458034  L 133.812488 149.74481  L 133.885704 148.349691  L 133.023028 146.378357  L 131.36963 144.016504  L 129.183759 141.493902  L 126.765534 139.025035  L 124.394223 136.762706  L 122.293535 134.788379  L 120.63506 133.143523  L 119.561434 131.871889  L 119.185944 131.02988  L 119.531696 130.650245  L 120.446251 130.693517  L 121.598061 131.039713  L 122.607536 131.518129  L 123.222298 131.941627  L 123.381423 132.130848  L 123.140283 131.96031  L 122.566797 131.418386  L 121.728985 130.623624  L 120.755235 129.759838  L 119.857276 128.983379  L 119.263862 128.396849  L 119.124134 128.101611  L 119.47016 128.24524  L 120.25081 128.978575  L 121.379683 130.354779  L 122.74333 132.271124  L 124.18972 134.497237  L 125.556333 136.760374  L 126.742753 138.822118  L 127.745309 140.508656  L 128.588896 141.697717  L 129.20808 142.295517  L 129.402321 142.230957  L 128.925831 141.462887  L 127.648769 139.987525  L 125.690122 137.856707  L 123.449905 135.227506  L 121.517982 132.427504  L 120.461036 129.958175  L 120.575225 128.377767  L 121.749368 128.086269  L 123.535908 129.120251  L 125.362679 131.077609  L 126.708386 133.212545  L 127.143372 134.661358  " clip-path="url(#p56d52d2f04)" style="fill: none; stroke: #a02f6f; stroke-width: 1.45; stroke-linecap: round"/>
      </g>
      <g id="direction-315-stimulus.x-population-trajectory" data-role="x-population-trajectory" data-series="direction-315-stimulus" data-kind="line">
        <path d="M 69.908793 94.437684  L 73.866944 95.853189  L 78.993481 97.217829  L 85.144714 98.201581  L 91.893403 98.645468  L 98.634776 98.700108  L 104.795592 98.714865  L 110.025555 98.977295  L 114.258924 99.525628  L 117.627061 100.168598  L 120.303212 100.663449  L 122.386031 100.893423  L 123.878374 100.910529  L 124.741066 100.837349  L 124.963578 100.728781  L 124.619715 100.51995  L 123.886468 100.091771  L 123.019915 99.377665  L 122.284539 98.419884  L 121.861266 97.347548  L 121.794036 96.322595  L 122.020048 95.495603  L 122.463072 94.977282  L 123.087956 94.803341  L 123.850638 94.897824  L 124.604679 95.066694  L 125.097092 95.056659  L 125.104058 94.667812  L 124.5928 93.843217  L 123.754032 92.674237  L 122.863182 91.327607  L 122.108728 89.964536  L 121.527958 88.699428  L 121.079564 87.594906  L 120.746899 86.672968  L 120.56433 85.939012  L 120.557042 85.405463  L 120.689762 85.085574  L 120.886753 84.958272  L 121.089716 84.951978  L 121.276901 84.986478  L 121.433056 85.033865  L 121.525492 85.128555  L 121.514938 85.296765  L 121.390791 85.475615  L 121.196628 85.500329  L 121.028301 85.168853  L 120.993527 84.330908  L 121.146919 82.946095  L 121.445259 81.119867  L 121.776494 79.112118  L 122.045256 77.293484  L 122.239521 76.029456  L 122.429556 75.540374  L 122.717009 75.821647  L 123.181493 76.662295  L 123.84361 77.714857  L 124.636395 78.568004  L 125.389017 78.825958  L 125.85711 78.22319  L 125.807282 76.744064  " clip-path="url(#p56d52d2f04)" style="fill: none; stroke: #5e409d; stroke-width: 1.45; stroke-linecap: round"/>
      </g>
      <g id="direction-180-offset.x-stimulus-offset" data-role="x-stimulus-offset" data-series="direction-180-offset" data-kind="shape">
        <defs>
          <path id="mc7aa401ac5" d="M -1.732051 1.732051  L 1.732051 1.732051  L 1.732051 -1.732051  L -1.732051 -1.732051  z " style="stroke: #ffffff; stroke-width: 0.35"/>
        </defs>
        <g clip-path="url(#p56d52d2f04)">
          <use xlink:href="#mc7aa401ac5" x="95.63664" y="126.077671" style="fill: #bc5215; stroke: #ffffff; stroke-width: 0.35"/>
        </g>
      </g>
      <g id="legend" data-role="legend" data-kind="container">
        <g id="legend.entry.0.swatch" data-role="legend-swatch" data-index="0" data-kind="shape">
          <path d="M 92.828984 203.930937  L 95.578984 203.930937  L 98.328984 203.930937  " style="fill: none; stroke: #205ea6; stroke-width: 1.15; stroke-linecap: round"/>
        </g>
        <g id="legend.entry.0.label" data-role="legend-label" data-index="0" data-kind="text">
          <text style="font-size: 5px; font-family: 'Arial', 'Helvetica', 'Lato', 'Helvetica Neue', 'DejaVu Sans', sans-serif; text-anchor: start; fill: #100f0f" x="100.578984" y="205.680937" transform="rotate(-0 100.578984 205.680937)">0°</text>
        </g>
        <g id="legend.entry.1.swatch" data-role="legend-swatch" data-index="1" data-kind="shape">
          <path d="M 92.828984 211.37332  L 95.578984 211.37332  L 98.328984 211.37332  " style="fill: none; stroke: #24837b; stroke-width: 1.15; stroke-linecap: round"/>
        </g>
        <g id="legend.entry.1.label" data-role="legend-label" data-index="1" data-kind="text">
          <text style="font-size: 5px; font-family: 'Arial', 'Helvetica', 'Lato', 'Helvetica Neue', 'DejaVu Sans', sans-serif; text-anchor: start; fill: #100f0f" x="100.578984" y="213.12332" transform="rotate(-0 100.578984 213.12332)">45°</text>
        </g>
        <g id="legend.entry.2.swatch" data-role="legend-swatch" data-index="2" data-kind="shape">
          <path d="M 114.139141 203.930937  L 116.889141 203.930937  L 119.639141 203.930937  " style="fill: none; stroke: #228833; stroke-width: 1.15; stroke-linecap: round"/>
        </g>
        <g id="legend.entry.2.label" data-role="legend-label" data-index="2" data-kind="text">
          <text style="font-size: 5px; font-family: 'Arial', 'Helvetica', 'Lato', 'Helvetica Neue', 'DejaVu Sans', sans-serif; text-anchor: start; fill: #100f0f" x="121.889141" y="205.680937" transform="rotate(-0 121.889141 205.680937)">90°</text>
        </g>
        <g id="legend.entry.3.swatch" data-role="legend-swatch" data-index="3" data-kind="shape">
          <path d="M 114.139141 211.37332  L 116.889141 211.37332  L 119.639141 211.37332  " style="fill: none; stroke: #ad8301; stroke-width: 1.15; stroke-linecap: round"/>
        </g>
        <g id="legend.entry.3.label" data-role="legend-label" data-index="3" data-kind="text">
          <text style="font-size: 5px; font-family: 'Arial', 'Helvetica', 'Lato', 'Helvetica Neue', 'DejaVu Sans', sans-serif; text-anchor: start; fill: #100f0f" x="121.889141" y="213.12332" transform="rotate(-0 121.889141 213.12332)">135°</text>
        </g>
        <g id="legend.entry.4.swatch" data-role="legend-swatch" data-index="4" data-kind="shape">
          <path d="M 138.229766 203.930937  L 140.979766 203.930937  L 143.729766 203.930937  " style="fill: none; stroke: #bc5215; stroke-width: 1.15; stroke-linecap: round"/>
        </g>
        <g id="legend.entry.4.label" data-role="legend-label" data-index="4" data-kind="text">
          <text style="font-size: 5px; font-family: 'Arial', 'Helvetica', 'Lato', 'Helvetica Neue', 'DejaVu Sans', sans-serif; text-anchor: start; fill: #100f0f" x="145.979766" y="205.680937" transform="rotate(-0 145.979766 205.680937)">180°</text>
        </g>
        <g id="legend.entry.5.swatch" data-role="legend-swatch" data-index="5" data-kind="shape">
          <path d="M 138.229766 211.37332  L 140.979766 211.37332  L 143.729766 211.37332  " style="fill: none; stroke: #af3029; stroke-width: 1.15; stroke-linecap: round"/>
        </g>
        <g id="legend.entry.5.label" data-role="legend-label" data-index="5" data-kind="text">
          <text style="font-size: 5px; font-family: 'Arial', 'Helvetica', 'Lato', 'Helvetica Neue', 'DejaVu Sans', sans-serif; text-anchor: start; fill: #100f0f" x="145.979766" y="213.12332" transform="rotate(-0 145.979766 213.12332)">225°</text>
        </g>
        <g id="legend.entry.6.swatch" data-role="legend-swatch" data-index="6" data-kind="shape">
          <path d="M 162.320391 203.930937  L 165.070391 203.930937  L 167.820391 203.930937  " style="fill: none; stroke: #a02f6f; stroke-width: 1.15; stroke-linecap: round"/>
        </g>
        <g id="legend.entry.6.label" data-role="legend-label" data-index="6" data-kind="text">
          <text style="font-size: 5px; font-family: 'Arial', 'Helvetica', 'Lato', 'Helvetica Neue', 'DejaVu Sans', sans-serif; text-anchor: start; fill: #100f0f" x="170.070391" y="205.680937" transform="rotate(-0 170.070391 205.680937)">270°</text>
        </g>
        <g id="legend.entry.7.swatch" data-role="legend-swatch" data-index="7" data-kind="shape">
          <path d="M 162.320391 211.37332  L 165.070391 211.37332  L 167.820391 211.37332  " style="fill: none; stroke: #5e409d; stroke-width: 1.15; stroke-linecap: round"/>
        </g>
        <g id="legend.entry.7.label" data-role="legend-label" data-index="7" data-kind="text">
          <text style="font-size: 5px; font-family: 'Arial', 'Helvetica', 'Lato', 'Helvetica Neue', 'DejaVu Sans', sans-serif; text-anchor: start; fill: #100f0f" x="170.070391" y="213.12332" transform="rotate(-0 170.070391 213.12332)">315°</text>
        </g>
      </g>
      <g id="direction-315-onset.x-stimulus-onset" data-role="x-stimulus-onset" data-series="direction-315-onset" data-kind="shape">
        <defs>
          <path id="m83d392e2e5" d="M 0 1.936492  C 0.513564 1.936492 1.006162 1.732451 1.369306 1.369306  C 1.732451 1.006162 1.936492 0.513564 1.936492 0  C 1.936492 -0.513564 1.732451 -1.006162 1.369306 -1.369306  C 1.006162 -1.732451 0.513564 -1.936492 0 -1.936492  C -0.513564 -1.936492 -1.006162 -1.732451 -1.369306 -1.369306  C -1.732451 -1.006162 -1.936492 -0.513564 -1.936492 0  C -1.936492 0.513564 -1.732451 1.006162 -1.369306 1.369306  C -1.006162 1.732451 -0.513564 1.936492 0 1.936492  z " style="stroke: #ffffff; stroke-width: 0.45"/>
        </defs>
        <g clip-path="url(#p56d52d2f04)">
          <use xlink:href="#m83d392e2e5" x="69.908793" y="94.437684" style="fill: #5e409d; stroke: #ffffff; stroke-width: 0.45"/>
        </g>
      </g>
      <g id="direction-180-onset.x-stimulus-onset" data-role="x-stimulus-onset" data-series="direction-180-onset" data-kind="shape">
        <defs>
          <path id="mf4883c847d" d="M 0 1.936492  C 0.513564 1.936492 1.006162 1.732451 1.369306 1.369306  C 1.732451 1.006162 1.936492 0.513564 1.936492 0  C 1.936492 -0.513564 1.732451 -1.006162 1.369306 -1.369306  C 1.006162 -1.732451 0.513564 -1.936492 0 -1.936492  C -0.513564 -1.936492 -1.006162 -1.732451 -1.369306 -1.369306  C -1.732451 -1.006162 -1.936492 -0.513564 -1.936492 0  C -1.936492 0.513564 -1.732451 1.006162 -1.369306 1.369306  C -1.006162 1.732451 -0.513564 1.936492 0 1.936492  z " style="stroke: #ffffff; stroke-width: 0.45"/>
        </defs>
        <g clip-path="url(#p56d52d2f04)">
          <use xlink:href="#mf4883c847d" x="66.32563" y="96.457402" style="fill: #bc5215; stroke: #ffffff; stroke-width: 0.45"/>
        </g>
      </g>
      <g id="direction-135-onset.x-stimulus-onset" data-role="x-stimulus-onset" data-series="direction-135-onset" data-kind="shape">
        <defs>
          <path id="m3486c13345" d="M 0 1.936492  C 0.513564 1.936492 1.006162 1.732451 1.369306 1.369306  C 1.732451 1.006162 1.936492 0.513564 1.936492 0  C 1.936492 -0.513564 1.732451 -1.006162 1.369306 -1.369306  C 1.006162 -1.732451 0.513564 -1.936492 0 -1.936492  C -0.513564 -1.936492 -1.006162 -1.732451 -1.369306 -1.369306  C -1.732451 -1.006162 -1.936492 -0.513564 -1.936492 0  C -1.936492 0.513564 -1.732451 1.006162 -1.369306 1.369306  C -1.006162 1.732451 -0.513564 1.936492 0 1.936492  z " style="stroke: #ffffff; stroke-width: 0.45"/>
        </defs>
        <g clip-path="url(#p56d52d2f04)">
          <use xlink:href="#m3486c13345" x="67.266534" y="99.446051" style="fill: #ad8301; stroke: #ffffff; stroke-width: 0.45"/>
        </g>
      </g>
      <g id="direction-0-onset.x-stimulus-onset" data-role="x-stimulus-onset" data-series="direction-0-onset" data-kind="shape">
        <defs>
          <path id="m425885be74" d="M 0 1.936492  C 0.513564 1.936492 1.006162 1.732451 1.369306 1.369306  C 1.732451 1.006162 1.936492 0.513564 1.936492 0  C 1.936492 -0.513564 1.732451 -1.006162 1.369306 -1.369306  C 1.006162 -1.732451 0.513564 -1.936492 0 -1.936492  C -0.513564 -1.936492 -1.006162 -1.732451 -1.369306 -1.369306  C -1.732451 -1.006162 -1.936492 -0.513564 -1.936492 0  C -1.936492 0.513564 -1.732451 1.006162 -1.369306 1.369306  C -1.006162 1.732451 -0.513564 1.936492 0 1.936492  z " style="stroke: #ffffff; stroke-width: 0.45"/>
        </defs>
        <g clip-path="url(#p56d52d2f04)">
          <use xlink:href="#m425885be74" x="68.894392" y="94.753456" style="fill: #205ea6; stroke: #ffffff; stroke-width: 0.45"/>
        </g>
      </g>
      <g id="direction-225-onset.x-stimulus-onset" data-role="x-stimulus-onset" data-series="direction-225-onset" data-kind="shape">
        <defs>
          <path id="m3f6d351ad7" d="M 0 1.936492  C 0.513564 1.936492 1.006162 1.732451 1.369306 1.369306  C 1.732451 1.006162 1.936492 0.513564 1.936492 0  C 1.936492 -0.513564 1.732451 -1.006162 1.369306 -1.369306  C 1.006162 -1.732451 0.513564 -1.936492 0 -1.936492  C -0.513564 -1.936492 -1.006162 -1.732451 -1.369306 -1.369306  C -1.732451 -1.006162 -1.936492 -0.513564 -1.936492 0  C -1.936492 0.513564 -1.732451 1.006162 -1.369306 1.369306  C -1.006162 1.732451 -0.513564 1.936492 0 1.936492  z " style="stroke: #ffffff; stroke-width: 0.45"/>
        </defs>
        <g clip-path="url(#p56d52d2f04)">
          <use xlink:href="#m3f6d351ad7" x="66.494698" y="96.712076" style="fill: #af3029; stroke: #ffffff; stroke-width: 0.45"/>
        </g>
      </g>
      <g id="direction-0-offset.x-stimulus-offset" data-role="x-stimulus-offset" data-series="direction-0-offset" data-kind="shape">
        <defs>
          <path id="md45f952284" d="M -1.732051 1.732051  L 1.732051 1.732051  L 1.732051 -1.732051  L -1.732051 -1.732051  z " style="stroke: #ffffff; stroke-width: 0.35"/>
        </defs>
        <g clip-path="url(#p56d52d2f04)">
          <use xlink:href="#md45f952284" x="104.47383" y="120.888572" style="fill: #205ea6; stroke: #ffffff; stroke-width: 0.35"/>
        </g>
      </g>
      <g id="direction-90-onset.x-stimulus-onset" data-role="x-stimulus-onset" data-series="direction-90-onset" data-kind="shape">
        <defs>
          <path id="m5b805bb71f" d="M 0 1.936492  C 0.513564 1.936492 1.006162 1.732451 1.369306 1.369306  C 1.732451 1.006162 1.936492 0.513564 1.936492 0  C 1.936492 -0.513564 1.732451 -1.006162 1.369306 -1.369306  C 1.006162 -1.732451 0.513564 -1.936492 0 -1.936492  C -0.513564 -1.936492 -1.006162 -1.732451 -1.369306 -1.369306  C -1.732451 -1.006162 -1.936492 -0.513564 -1.936492 0  C -1.936492 0.513564 -1.732451 1.006162 -1.369306 1.369306  C -1.006162 1.732451 -0.513564 1.936492 0 1.936492  z " style="stroke: #ffffff; stroke-width: 0.45"/>
        </defs>
        <g clip-path="url(#p56d52d2f04)">
          <use xlink:href="#m5b805bb71f" x="73.349882" y="99.379741" style="fill: #228833; stroke: #ffffff; stroke-width: 0.45"/>
        </g>
      </g>
      <g id="direction-45-onset.x-stimulus-onset" data-role="x-stimulus-onset" data-series="direction-45-onset" data-kind="shape">
        <defs>
          <path id="m5e1c013b8c" d="M 0 1.936492  C 0.513564 1.936492 1.006162 1.732451 1.369306 1.369306  C 1.732451 1.006162 1.936492 0.513564 1.936492 0  C 1.936492 -0.513564 1.732451 -1.006162 1.369306 -1.369306  C 1.006162 -1.732451 0.513564 -1.936492 0 -1.936492  C -0.513564 -1.936492 -1.006162 -1.732451 -1.369306 -1.369306  C -1.732451 -1.006162 -1.936492 -0.513564 -1.936492 0  C -1.936492 0.513564 -1.732451 1.006162 -1.369306 1.369306  C -1.006162 1.732451 -0.513564 1.936492 0 1.936492  z " style="stroke: #ffffff; stroke-width: 0.45"/>
        </defs>
        <g clip-path="url(#p56d52d2f04)">
          <use xlink:href="#m5e1c013b8c" x="69.320431" y="93.858562" style="fill: #24837b; stroke: #ffffff; stroke-width: 0.45"/>
        </g>
      </g>
      <g id="direction-270-offset.x-stimulus-offset" data-role="x-stimulus-offset" data-series="direction-270-offset" data-kind="shape">
        <defs>
          <path id="m85df3649c2" d="M -1.732051 1.732051  L 1.732051 1.732051  L 1.732051 -1.732051  L -1.732051 -1.732051  z " style="stroke: #ffffff; stroke-width: 0.35"/>
        </defs>
        <g clip-path="url(#p56d52d2f04)">
          <use xlink:href="#m85df3649c2" x="127.143372" y="134.661358" style="fill: #a02f6f; stroke: #ffffff; stroke-width: 0.35"/>
        </g>
      </g>
      <g id="direction-270-onset.x-stimulus-onset" data-role="x-stimulus-onset" data-series="direction-270-onset" data-kind="shape">
        <defs>
          <path id="mfdfb8f1cef" d="M 0 1.936492  C 0.513564 1.936492 1.006162 1.732451 1.369306 1.369306  C 1.732451 1.006162 1.936492 0.513564 1.936492 0  C 1.936492 -0.513564 1.732451 -1.006162 1.369306 -1.369306  C 1.006162 -1.732451 0.513564 -1.936492 0 -1.936492  C -0.513564 -1.936492 -1.006162 -1.732451 -1.369306 -1.369306  C -1.732451 -1.006162 -1.936492 -0.513564 -1.936492 0  C -1.936492 0.513564 -1.732451 1.006162 -1.369306 1.369306  C -1.006162 1.732451 -0.513564 1.936492 0 1.936492  z " style="stroke: #ffffff; stroke-width: 0.45"/>
        </defs>
        <g clip-path="url(#p56d52d2f04)">
          <use xlink:href="#mfdfb8f1cef" x="73.445172" y="108.260022" style="fill: #a02f6f; stroke: #ffffff; stroke-width: 0.45"/>
        </g>
      </g>
      <g id="direction-225-offset.x-stimulus-offset" data-role="x-stimulus-offset" data-series="direction-225-offset" data-kind="shape">
        <defs>
          <path id="m2cc4f74e4d" d="M -1.732051 1.732051  L 1.732051 1.732051  L 1.732051 -1.732051  L -1.732051 -1.732051  z " style="stroke: #ffffff; stroke-width: 0.35"/>
        </defs>
        <g clip-path="url(#p56d52d2f04)">
          <use xlink:href="#m2cc4f74e4d" x="118.429055" y="86.334957" style="fill: #af3029; stroke: #ffffff; stroke-width: 0.35"/>
        </g>
      </g>
      <g id="direction-45-offset.x-stimulus-offset" data-role="x-stimulus-offset" data-series="direction-45-offset" data-kind="shape">
        <defs>
          <path id="madc5352c8b" d="M -1.732051 1.732051  L 1.732051 1.732051  L 1.732051 -1.732051  L -1.732051 -1.732051  z " style="stroke: #ffffff; stroke-width: 0.35"/>
        </defs>
        <g clip-path="url(#p56d52d2f04)">
          <use xlink:href="#madc5352c8b" x="134.783126" y="70.007258" style="fill: #24837b; stroke: #ffffff; stroke-width: 0.35"/>
        </g>
      </g>
    </g>
    <g id="annotation.0" data-role="annotation" data-kind="text">
      <text style="font-size: 6px; font-family: 'Arial', 'Helvetica', 'Lato', 'Helvetica Neue', 'DejaVu Sans', sans-serif; fill: #100f0f" transform="translate(240.016676 107.850281) rotate(-90)">PC 3 (8.4%)</text>
    </g>
    <g id="annotation.1" data-role="annotation" data-kind="text">
      <text style="font-size: 5px; font-family: 'Arial', 'Helvetica', 'Lato', 'Helvetica Neue', 'DejaVu Sans', sans-serif; text-anchor: middle; fill: #575653" x="124.2" y="219.6288" transform="rotate(-0 124.2 219.6288)">● 0 frames     ■ 60 frames     143 cells · 2 Hz</text>
    </g>
  </g>
  <defs>
    <clipPath id="p56d52d2f04">
      <rect x="23.994" y="4.464" width="183.024" height="183.024"/>
    </clipPath>
  </defs>
</svg>
