<svg xmlns="http://www.w3.org/2000/svg" viewBox="0 0 680 392" role="img"><title>Move to align ends on the Animator timeline</title><desc>Schematic timing lanes before and after alignment. The two selected lanes have blue selection rails and outlined timing bars.</desc><rect width="680" height="392" fill="#100f0f"/><style>text{font:12px Arial,sans-serif;fill:#cecdc3}.label{font-weight:bold;fill:#fffcf0}.hint,.ruler,.column,.duration{font-family:ui-monospace,Menlo,Consolas,monospace}.hint,.ruler,.column,.effect{fill:#9f9d96}.hint,.column{font-size:10px;letter-spacing:.04em}.effect{font-size:10px}.compact-label{display:none}.duration{font-size:11px}.track-name{font-size:13px}@media(max-width:450px){text,.ruler,.track-name{font-size:20px}.label{font-size:20px}.hint{font-size:15px}.column{font-size:15px}.duration{font-size:18px}.effect,.half,.wide-label{display:none}.compact-label{display:inline}.track-name{transform:translateY(6px)}}</style><text class="label" x="20" y="25">BEFORE</text><text class="hint" x="452" y="25">ANIMATOR TIMELINE</text><rect x="20" y="39" width="640" height="127" fill="#100f0f" stroke="#403e3c"/><rect x="20" y="39" width="640" height="25" fill="#1c1b1a"/><text class="column" x="30" y="55"><tspan class="wide-label">OBJECT / EFFECT</tspan><tspan class="compact-label">TRACK</tspan></text><path d="M164 44V166" stroke="#343331"/><text class="ruler " x="169" y="55">0s</text><path d="M181.4 64V166" stroke="#242322"/><path d="M198.8 64V166" stroke="#242322"/><path d="M216.2 64V166" stroke="#242322"/><path d="M233.6 64V166" stroke="#242322"/><path d="M251 44V166" stroke="#343331"/><text class="ruler half" x="256" y="55">0.5s</text><path d="M268.4 64V166" stroke="#242322"/><path d="M285.8 64V166" stroke="#242322"/><path d="M303.2 64V166" stroke="#242322"/><path d="M320.6 64V166" stroke="#242322"/><path d="M338 44V166" stroke="#343331"/><text class="ruler " x="343" y="55">1s</text><path d="M355.4 64V166" stroke="#242322"/><path d="M372.79999999999995 64V166" stroke="#242322"/><path d="M390.2 64V166" stroke="#242322"/><path d="M407.6 64V166" stroke="#242322"/><path d="M425 44V166" stroke="#343331"/><text class="ruler half" x="430" y="55">1.5s</text><path d="M442.4 64V166" stroke="#242322"/><path d="M459.79999999999995 64V166" stroke="#242322"/><path d="M477.2 64V166" stroke="#242322"/><path d="M494.59999999999997 64V166" stroke="#242322"/><path d="M512 44V166" stroke="#343331"/><text class="ruler " x="517" y="55">2s</text><path d="M529.4 64V166" stroke="#242322"/><path d="M546.8 64V166" stroke="#242322"/><path d="M564.2 64V166" stroke="#242322"/><path d="M581.5999999999999 64V166" stroke="#242322"/><path d="M599 44V166" stroke="#343331"/><text class="ruler half" x="604" y="55">2.5s</text><path d="M616.4 64V166" stroke="#242322"/><path d="M633.8 64V166" stroke="#242322"/><path d="M651.2 64V166" stroke="#242322"/><g><rect x="20" y="64" width="144" height="34" fill="#1c1b1a"/><text class="track-name" x="30" y="79">Reference</text><text class="effect" x="30" y="92">Fade in</text><path d="M20 98H660" stroke="#2a2827"/><rect x="216.2" y="71" width="417.59999999999997" height="20" fill="#100f0f"/><rect x="216.2" y="71" width="417.59999999999997" height="20" fill="#879a39" fill-opacity=".22" stroke="#879a39"/><path d="M216.20,91.00 L234.36,90.98 L252.51,90.89 L270.67,90.64 L288.83,90.20 L306.98,89.56 L325.14,88.69 L343.30,87.62 L361.45,86.36 L379.61,84.95 L397.77,83.42 L415.92,81.81 L434.08,80.19 L452.23,78.58 L470.39,77.05 L488.55,75.64 L506.70,74.38 L524.86,73.31 L543.02,72.44 L561.17,71.80 L579.33,71.36 L597.49,71.11 L615.64,71.02 L633.80,71.00" fill="none" stroke="#879a39" stroke-opacity=".55"/><text class="duration" x="221.2" y="85">2.40s</text></g><g><rect x="164" y="98" width="496" height="34" fill="#4385be" fill-opacity=".16"/><rect x="20" y="98" width="144" height="34" fill="#222a31"/><path d="M21 98v34" stroke="#4385be" stroke-width="2"/><text class="track-name" x="30" y="113">Selected 1</text><text class="effect" x="30" y="126">Pop in</text><path d="M20 132H660" stroke="#2a2827"/><rect x="319.6" y="104" width="176" height="22" fill="none" stroke="#fffcf0"/><rect x="320.6" y="105" width="174" height="20" fill="#100f0f"/><rect x="320.6" y="105" width="174" height="20" fill="#8b7ec8" fill-opacity=".22" stroke="#8b7ec8"/><path d="M320.60,125.00 L328.17,124.98 L335.73,124.89 L343.30,124.64 L350.86,124.20 L358.43,123.56 L365.99,122.69 L373.56,121.62 L381.12,120.36 L388.69,118.95 L396.25,117.42 L403.82,115.81 L411.38,114.19 L418.95,112.58 L426.51,111.05 L434.08,109.64 L441.64,108.38 L449.21,107.31 L456.77,106.44 L464.34,105.80 L471.90,105.36 L479.47,105.11 L487.03,105.02 L494.60,105.00" fill="none" stroke="#8b7ec8" stroke-opacity=".55"/><text class="duration" x="325.6" y="119">1.00s</text></g><g><rect x="164" y="132" width="496" height="34" fill="#4385be" fill-opacity=".16"/><rect x="20" y="132" width="144" height="34" fill="#222a31"/><path d="M21 132v34" stroke="#4385be" stroke-width="2"/><text class="track-name" x="30" y="147">Selected 2</text><text class="effect" x="30" y="160">Wipe in</text><path d="M20 166H660" stroke="#2a2827"/><rect x="389.2" y="138" width="106.39999999999999" height="22" fill="none" stroke="#fffcf0"/><rect x="390.2" y="139" width="104.39999999999999" height="20" fill="#100f0f"/><rect x="390.2" y="139" width="104.39999999999999" height="20" fill="#3aa99f" fill-opacity=".22" stroke="#3aa99f"/><path d="M390.20,159.00 L394.74,158.98 L399.28,158.89 L403.82,158.64 L408.36,158.20 L412.90,157.56 L417.43,156.69 L421.97,155.62 L426.51,154.36 L431.05,152.95 L435.59,151.42 L440.13,149.81 L444.67,148.19 L449.21,146.58 L453.75,145.05 L458.29,143.64 L462.83,142.38 L467.37,141.31 L471.90,140.44 L476.44,139.80 L480.98,139.36 L485.52,139.11 L490.06,139.02 L494.60,139.00" fill="none" stroke="#3aa99f" stroke-opacity=".55"/><text class="duration" x="395.2" y="153">0.60s</text></g><path d="M164 39V166" stroke="#403e3c"/><text class="label" x="20" y="201">AFTER</text><text x="164" y="201">Alt + D</text><rect x="20" y="215" width="640" height="127" fill="#100f0f" stroke="#403e3c"/><rect x="20" y="215" width="640" height="25" fill="#1c1b1a"/><text class="column" x="30" y="231"><tspan class="wide-label">OBJECT / EFFECT</tspan><tspan class="compact-label">TRACK</tspan></text><path d="M164 220V342" stroke="#343331"/><text class="ruler " x="169" y="231">0s</text><path d="M181.4 240V342" stroke="#242322"/><path d="M198.8 240V342" stroke="#242322"/><path d="M216.2 240V342" stroke="#242322"/><path d="M233.6 240V342" stroke="#242322"/><path d="M251 220V342" stroke="#343331"/><text class="ruler half" x="256" y="231">0.5s</text><path d="M268.4 240V342" stroke="#242322"/><path d="M285.8 240V342" stroke="#242322"/><path d="M303.2 240V342" stroke="#242322"/><path d="M320.6 240V342" stroke="#242322"/><path d="M338 220V342" stroke="#343331"/><text class="ruler " x="343" y="231">1s</text><path d="M355.4 240V342" stroke="#242322"/><path d="M372.79999999999995 240V342" stroke="#242322"/><path d="M390.2 240V342" stroke="#242322"/><path d="M407.6 240V342" stroke="#242322"/><path d="M425 220V342" stroke="#343331"/><text class="ruler half" x="430" y="231">1.5s</text><path d="M442.4 240V342" stroke="#242322"/><path d="M459.79999999999995 240V342" stroke="#242322"/><path d="M477.2 240V342" stroke="#242322"/><path d="M494.59999999999997 240V342" stroke="#242322"/><path d="M512 220V342" stroke="#343331"/><text class="ruler " x="517" y="231">2s</text><path d="M529.4 240V342" stroke="#242322"/><path d="M546.8 240V342" stroke="#242322"/><path d="M564.2 240V342" stroke="#242322"/><path d="M581.5999999999999 240V342" stroke="#242322"/><path d="M599 220V342" stroke="#343331"/><text class="ruler half" x="604" y="231">2.5s</text><path d="M616.4 240V342" stroke="#242322"/><path d="M633.8 240V342" stroke="#242322"/><path d="M651.2 240V342" stroke="#242322"/><g><rect x="20" y="240" width="144" height="34" fill="#1c1b1a"/><text class="track-name" x="30" y="255">Reference</text><text class="effect" x="30" y="268">Fade in</text><path d="M20 274H660" stroke="#2a2827"/><rect x="216.2" y="247" width="417.59999999999997" height="20" fill="#100f0f"/><rect x="216.2" y="247" width="417.59999999999997" height="20" fill="#879a39" fill-opacity=".22" stroke="#879a39"/><path d="M216.20,267.00 L234.36,266.98 L252.51,266.89 L270.67,266.64 L288.83,266.20 L306.98,265.56 L325.14,264.69 L343.30,263.62 L361.45,262.36 L379.61,260.95 L397.77,259.42 L415.92,257.81 L434.08,256.19 L452.23,254.58 L470.39,253.05 L488.55,251.64 L506.70,250.38 L524.86,249.31 L543.02,248.44 L561.17,247.80 L579.33,247.36 L597.49,247.11 L615.64,247.02 L633.80,247.00" fill="none" stroke="#879a39" stroke-opacity=".55"/><text class="duration" x="221.2" y="261">2.40s</text></g><g><rect x="164" y="274" width="496" height="34" fill="#4385be" fill-opacity=".16"/><rect x="20" y="274" width="144" height="34" fill="#222a31"/><path d="M21 274v34" stroke="#4385be" stroke-width="2"/><text class="track-name" x="30" y="289">Selected 1</text><text class="effect" x="30" y="302">Pop in</text><path d="M20 308H660" stroke="#2a2827"/><rect x="458.79999999999995" y="280" width="176" height="22" fill="none" stroke="#fffcf0"/><rect x="459.79999999999995" y="281" width="174" height="20" fill="#100f0f"/><rect x="459.79999999999995" y="281" width="174" height="20" fill="#8b7ec8" fill-opacity=".22" stroke="#8b7ec8"/><path d="M459.80,301.00 L467.37,300.98 L474.93,300.89 L482.50,300.64 L490.06,300.20 L497.63,299.56 L505.19,298.69 L512.76,297.62 L520.32,296.36 L527.89,294.95 L535.45,293.42 L543.02,291.81 L550.58,290.19 L558.15,288.58 L565.71,287.05 L573.28,285.64 L580.84,284.38 L588.41,283.31 L595.97,282.44 L603.54,281.80 L611.10,281.36 L618.67,281.11 L626.23,281.02 L633.80,281.00" fill="none" stroke="#8b7ec8" stroke-opacity=".55"/><text class="duration" x="464.79999999999995" y="295">1.00s</text></g><g><rect x="164" y="308" width="496" height="34" fill="#4385be" fill-opacity=".16"/><rect x="20" y="308" width="144" height="34" fill="#222a31"/><path d="M21 308v34" stroke="#4385be" stroke-width="2"/><text class="track-name" x="30" y="323">Selected 2</text><text class="effect" x="30" y="336">Wipe in</text><path d="M20 342H660" stroke="#2a2827"/><rect x="528.4" y="314" width="106.39999999999999" height="22" fill="none" stroke="#fffcf0"/><rect x="529.4" y="315" width="104.39999999999999" height="20" fill="#100f0f"/><rect x="529.4" y="315" width="104.39999999999999" height="20" fill="#3aa99f" fill-opacity=".22" stroke="#3aa99f"/><path d="M529.40,335.00 L533.94,334.98 L538.48,334.89 L543.02,334.64 L547.56,334.20 L552.10,333.56 L556.63,332.69 L561.17,331.62 L565.71,330.36 L570.25,328.95 L574.79,327.42 L579.33,325.81 L583.87,324.19 L588.41,322.58 L592.95,321.05 L597.49,319.64 L602.03,318.38 L606.57,317.31 L611.10,316.44 L615.64,315.80 L620.18,315.36 L624.72,315.11 L629.26,315.02 L633.80,315.00" fill="none" stroke="#3aa99f" stroke-opacity=".55"/><text class="duration" x="534.4" y="329">0.60s</text></g><path d="M164 215V342" stroke="#403e3c"/><path d="M633.8 215V342" stroke="#66a0c8" stroke-width="1.5" stroke-dasharray="4 3"/><path d="M629.8 215h8l-4 6z" fill="#66a0c8"/><text x="20" y="377">Durations stay the same.</text><text x="413" y="377">Ends meet at 2.7 s</text></svg>