<?xml version="1.0" encoding="utf-8" standalone="no"?>
<svg xmlns:xlink="http://www.w3.org/1999/xlink" xmlns="http://www.w3.org/2000/svg" width="230.4pt" height="183.6pt" viewBox="0 0 230.4 183.6" version="1.1" data-fluxplot="1" data-plot-type="line">
  <defs>
    <style type="text/css">*{stroke-linejoin: round; stroke-linecap: butt}</style>
  </defs>
  <g id="figure" data-role="figure" data-kind="container">
    <g id="patch_1">
      <path d="M 0 183.6  L 230.4 183.6  L 230.4 0  L 0 0  z " style="fill: #ffffff"/>
    </g>
    <g id="plot-area" data-role="plot-area" data-kind="container">
      <g id="patch_2">
        <path d="M 158.076 89.964  C 158.076 82.972062 156.698741 76.048112 154.023042 69.588403  C 151.347343 63.128695 147.42524 57.258853 142.481193 52.314807  C 137.537147 47.37076 131.667305 43.448657 125.207597 40.772958  C 118.747888 38.097259 111.823938 36.72 104.832 36.72  C 97.840062 36.72 90.916112 38.097259 84.456403 40.772958  C 77.996695 43.448657 72.126853 47.37076 67.182807 52.314807  C 62.23876 57.258853 58.316657 63.128695 55.640958 69.588403  C 52.965259 76.048112 51.588 82.972062 51.588 89.964  C 51.588 96.955938 52.965259 103.879888 55.640958 110.339597  C 58.316657 116.799305 62.23876 122.669147 67.182807 127.613193  C 72.126853 132.55724 77.996695 136.479343 84.456403 139.155042  C 90.916112 141.830741 97.840062 143.208 104.832 143.208  C 111.823938 143.208 118.747888 141.830741 125.207597 139.155042  C 131.667305 136.479343 137.537147 132.55724 142.481193 127.613193  C 147.42524 122.669147 151.347343 116.799305 154.023042 110.339597  C 156.698741 103.879888 158.076 96.955938 158.076 89.964  M 104.832 89.964  C 104.832 89.964 104.832 89.964 104.832 89.964  C 104.832 89.964 104.832 89.964 104.832 89.964  C 104.832 89.964 104.832 89.964 104.832 89.964  C 104.832 89.964 104.832 89.964 104.832 89.964  C 104.832 89.964 104.832 89.964 104.832 89.964  C 104.832 89.964 104.832 89.964 104.832 89.964  C 104.832 89.964 104.832 89.964 104.832 89.964  C 104.832 89.964 104.832 89.964 104.832 89.964  C 104.832 89.964 104.832 89.964 104.832 89.964  C 104.832 89.964 104.832 89.964 104.832 89.964  C 104.832 89.964 104.832 89.964 104.832 89.964  C 104.832 89.964 104.832 89.964 104.832 89.964  C 104.832 89.964 104.832 89.964 104.832 89.964  C 104.832 89.964 104.832 89.964 104.832 89.964  C 104.832 89.964 104.832 89.964 104.832 89.964  C 104.832 89.964 104.832 89.964 104.832 89.964  z " style="fill: #ffffff"/>
      </g>
      <g id="axis.x" data-role="axis" data-axis="x" data-kind="container">
        <g id="xtick_1">
          <g id="axis.x.gridline.0" data-role="gridline" data-axis="x" data-index="0" data-kind="line">
            <path d="M 104.832 89.964  L 158.076 89.964  " clip-path="url(#p0a86a2c8ad)" style="fill: none; stroke: #e4e9e9; stroke-width: 0.45; stroke-linecap: square"/>
          </g>
          <g id="axis.x.ticklabel.0" data-role="tick-label" data-axis="x" data-index="0" data-kind="text">
            <text style="font-size: 6px; font-family: 'Arial'; text-anchor: middle; fill: #1b2838" x="170.576" y="91.516734" transform="rotate(-0 170.576 91.516734)">0°</text>
          </g>
        </g>
        <g id="xtick_2">
          <g id="axis.x.gridline.1" data-role="gridline" data-axis="x" data-index="1" data-kind="line">
            <path d="M 104.832 89.964  L 104.832 36.72  " clip-path="url(#p0a86a2c8ad)" style="fill: none; stroke: #e4e9e9; stroke-width: 0.45; stroke-linecap: square"/>
          </g>
          <g id="axis.x.ticklabel.1" data-role="tick-label" data-axis="x" data-index="1" data-kind="text">
            <text style="font-size: 6px; font-family: 'Arial'; text-anchor: middle; fill: #1b2838" x="104.832" y="25.772734" transform="rotate(-0 104.832 25.772734)">90°</text>
          </g>
        </g>
        <g id="xtick_3">
          <g id="axis.x.gridline.2" data-role="gridline" data-axis="x" data-index="2" data-kind="line">
            <path d="M 104.832 89.964  L 51.588 89.964  " clip-path="url(#p0a86a2c8ad)" style="fill: none; stroke: #e4e9e9; stroke-width: 0.45; stroke-linecap: square"/>
          </g>
          <g id="axis.x.ticklabel.2" data-role="tick-label" data-axis="x" data-index="2" data-kind="text">
            <text style="font-size: 6px; font-family: 'Arial'; text-anchor: middle; fill: #1b2838" x="39.088" y="91.516734" transform="rotate(-0 39.088 91.516734)">180°</text>
          </g>
        </g>
        <g id="xtick_4">
          <g id="axis.x.gridline.3" data-role="gridline" data-axis="x" data-index="3" data-kind="line">
            <path d="M 104.832 89.964  L 104.832 143.208  " clip-path="url(#p0a86a2c8ad)" style="fill: none; stroke: #e4e9e9; stroke-width: 0.45; stroke-linecap: square"/>
          </g>
          <g id="axis.x.ticklabel.3" data-role="tick-label" data-axis="x" data-index="3" data-kind="text">
            <text style="font-size: 6px; font-family: 'Arial'; text-anchor: middle; fill: #1b2838" x="104.832" y="157.260734" transform="rotate(-0 104.832 157.260734)">270°</text>
          </g>
        </g>
      </g>
      <g id="axis.y" data-role="axis" data-axis="y" data-kind="container">
        <g id="ytick_1">
          <g id="axis.y.gridline.0" data-role="gridline" data-axis="y" data-index="0" data-kind="line">
            <path d="M 128.601643 89.964  C 128.601643 86.842599 127.986795 83.75155 126.792287 80.867751  C 125.597778 77.983953 123.846839 75.363488 121.639676 73.156324  C 119.432512 70.949161 116.812047 69.198222 113.928249 68.003713  C 111.04445 66.809205 107.953401 66.194357 104.832 66.194357  C 101.710599 66.194357 98.61955 66.809205 95.735751 68.003713  C 92.851953 69.198222 90.231488 70.949161 88.024324 73.156324  C 85.817161 75.363488 84.066222 77.983953 82.871713 80.867751  C 81.677205 83.75155 81.062357 86.842599 81.062357 89.964  C 81.062357 93.085401 81.677205 96.17645 82.871713 99.060249  C 84.066222 101.944047 85.817161 104.564512 88.024324 106.771676  C 90.231488 108.978839 92.851953 110.729778 95.735751 111.924287  C 98.61955 113.118795 101.710599 113.733643 104.832 113.733643  C 107.953401 113.733643 111.04445 113.118795 113.928249 111.924287  C 116.812047 110.729778 119.432512 108.978839 121.639676 106.771676  C 123.846839 104.564512 125.597778 101.944047 126.792287 99.060249  C 127.986795 96.17645 128.601643 93.085401 128.601643 89.964  " clip-path="url(#p0a86a2c8ad)" style="fill: none; stroke: #e4e9e9; stroke-width: 0.45; stroke-linecap: square"/>
          </g>
          <g id="axis.y.ticklabel.0" data-role="tick-label" data-axis="y" data-index="0" data-kind="text">
            <text style="font-size: 5px; font-family: 'Arial'; text-anchor: start; fill: #1b2838" x="126.792287" y="79.815505" transform="rotate(-0 126.792287 79.815505)">.5</text>
          </g>
        </g>
        <g id="ytick_2">
          <g id="axis.y.gridline.1" data-role="gridline" data-axis="y" data-index="1" data-kind="line">
            <path d="M 152.371286 89.964  C 152.371286 83.721198 151.14159 77.5391 148.752573 71.771503  C 146.363556 66.003906 142.861679 60.762976 138.447351 56.348649  C 134.033024 51.934321 128.792094 48.432444 123.024497 46.043427  C 117.2569 43.65441 111.074802 42.424714 104.832 42.424714  C 98.589198 42.424714 92.4071 43.65441 86.639503 46.043427  C 80.871906 48.432444 75.630976 51.934321 71.216649 56.348649  C 66.802321 60.762976 63.300444 66.003906 60.911427 71.771503  C 58.52241 77.5391 57.292714 83.721198 57.292714 89.964  C 57.292714 96.206802 58.52241 102.3889 60.911427 108.156497  C 63.300444 113.924094 66.802321 119.165024 71.216649 123.579351  C 75.630976 127.993679 80.871906 131.495556 86.639503 133.884573  C 92.4071 136.27359 98.589198 137.503286 104.832 137.503286  C 111.074802 137.503286 117.2569 136.27359 123.024497 133.884573  C 128.792094 131.495556 134.033024 127.993679 138.447351 123.579351  C 142.861679 119.165024 146.363556 113.924094 148.752573 108.156497  C 151.14159 102.3889 152.371286 96.206802 152.371286 89.964  " clip-path="url(#p0a86a2c8ad)" style="fill: none; stroke: #e4e9e9; stroke-width: 0.45; stroke-linecap: square"/>
          </g>
          <g id="axis.y.ticklabel.1" data-role="tick-label" data-axis="y" data-index="1" data-kind="text">
            <text style="font-size: 5px; font-family: 'Arial'; text-anchor: start; fill: #1b2838" x="148.752573" y="70.719257" transform="rotate(-0 148.752573 70.719257)">1</text>
          </g>
        </g>
      </g>
      <g id="cell-517470610-tuning.line" data-role="line" data-series="cell-517470610-tuning" data-kind="line">
        <path d="M 152.371286 89.964  L 104.832 89.964  L 104.832 89.964  L 104.832 89.964  L 60.901157 89.964  L 104.832 89.964  L 104.832 89.964  L 104.832 89.964  L 152.371286 89.964  " clip-path="url(#p0a86a2c8ad)" style="fill: none; stroke: #315c80; stroke-width: 1.2; stroke-linecap: square"/>
      </g>
      <g id="cell-517470610-tuning.points" data-series="cell-517470610-tuning" data-kind="shape">
        <defs>
          <path id="m1770147397" d="M 0 1  C 0.265203 1 0.51958 0.894634 0.707107 0.707107  C 0.894634 0.51958 1 0.265203 1 0  C 1 -0.265203 0.894634 -0.51958 0.707107 -0.707107  C 0.51958 -0.894634 0.265203 -1 0 -1  C -0.265203 -1 -0.51958 -0.894634 -0.707107 -0.707107  C -0.894634 -0.51958 -1 -0.265203 -1 0  C -1 0.265203 -0.894634 0.51958 -0.707107 0.707107  C -0.51958 0.894634 -0.265203 1 0 1  z " style="stroke: #315c80"/>
        </defs>
        <g clip-path="url(#p0a86a2c8ad)">
          <use xlink:href="#m1770147397" x="152.371286" y="89.964" style="fill: #315c80; stroke: #315c80" id="cell-517470610-tuning.point.0" data-role="point" data-series="cell-517470610-tuning" data-index="0" data-x="0.0" data-y="1.0" data-kind="shape"/>
          <use xlink:href="#m1770147397" x="104.832" y="89.964" style="fill: #315c80; stroke: #315c80" id="cell-517470610-tuning.point.1" data-role="point" data-series="cell-517470610-tuning" data-index="1" data-x="0.7853981633974483" data-y="0.0" data-kind="shape"/>
          <use xlink:href="#m1770147397" x="104.832" y="89.964" style="fill: #315c80; stroke: #315c80" id="cell-517470610-tuning.point.2" data-role="point" data-series="cell-517470610-tuning" data-index="2" data-x="1.5707963267948966" data-y="0.0" data-kind="shape"/>
          <use xlink:href="#m1770147397" x="104.832" y="89.964" style="fill: #315c80; stroke: #315c80" id="cell-517470610-tuning.point.3" data-role="point" data-series="cell-517470610-tuning" data-index="3" data-x="2.356194490192345" data-y="0.0" data-kind="shape"/>
          <use xlink:href="#m1770147397" x="60.901157" y="89.964" style="fill: #315c80; stroke: #315c80" id="cell-517470610-tuning.point.4" data-role="point" data-series="cell-517470610-tuning" data-index="4" data-x="3.141592653589793" data-y="0.9240955654816616" data-kind="shape"/>
          <use xlink:href="#m1770147397" x="104.832" y="89.964" style="fill: #315c80; stroke: #315c80" id="cell-517470610-tuning.point.5" data-role="point" data-series="cell-517470610-tuning" data-index="5" data-x="3.9269908169872414" data-y="0.0" data-kind="shape"/>
          <use xlink:href="#m1770147397" x="104.832" y="89.964" style="fill: #315c80; stroke: #315c80" id="cell-517470610-tuning.point.6" data-role="point" data-series="cell-517470610-tuning" data-index="6" data-x="4.71238898038469" data-y="0.0" data-kind="shape"/>
          <use xlink:href="#m1770147397" x="104.832" y="89.964" style="fill: #315c80; stroke: #315c80" id="cell-517470610-tuning.point.7" data-role="point" data-series="cell-517470610-tuning" data-index="7" data-x="5.497787143782138" data-y="0.0" data-kind="shape"/>
          <use xlink:href="#m1770147397" x="152.371286" y="89.964" style="fill: #315c80; stroke: #315c80" id="cell-517470610-tuning.point.8" data-role="point" data-series="cell-517470610-tuning" data-index="8" data-x="0.0" data-y="1.0" data-kind="shape"/>
        </g>
      </g>
      <g id="cell-587375741-tuning.line" data-role="line" data-series="cell-587375741-tuning" data-kind="line">
        <path d="M 104.832 89.964  L 104.832 89.964  L 104.832 42.424714  L 104.832 89.964  L 104.832 89.964  L 104.832 89.964  L 104.832 125.164856  L 104.832 89.964  L 104.832 89.964  " clip-path="url(#p0a86a2c8ad)" style="fill: none; stroke: #26857d; stroke-width: 1.2; stroke-linecap: square"/>
      </g>
      <g id="cell-587375741-tuning.points" data-series="cell-587375741-tuning" data-kind="shape">
        <defs>
          <path id="mb7136d9652" d="M 0 1  C 0.265203 1 0.51958 0.894634 0.707107 0.707107  C 0.894634 0.51958 1 0.265203 1 0  C 1 -0.265203 0.894634 -0.51958 0.707107 -0.707107  C 0.51958 -0.894634 0.265203 -1 0 -1  C -0.265203 -1 -0.51958 -0.894634 -0.707107 -0.707107  C -0.894634 -0.51958 -1 -0.265203 -1 0  C -1 0.265203 -0.894634 0.51958 -0.707107 0.707107  C -0.51958 0.894634 -0.265203 1 0 1  z " style="stroke: #26857d"/>
        </defs>
        <g clip-path="url(#p0a86a2c8ad)">
          <use xlink:href="#mb7136d9652" x="104.832" y="89.964" style="fill: #26857d; stroke: #26857d" id="cell-587375741-tuning.point.0" data-role="point" data-series="cell-587375741-tuning" data-index="0" data-x="0.0" data-y="0.0" data-kind="shape"/>
          <use xlink:href="#mb7136d9652" x="104.832" y="89.964" style="fill: #26857d; stroke: #26857d" id="cell-587375741-tuning.point.1" data-role="point" data-series="cell-587375741-tuning" data-index="1" data-x="0.7853981633974483" data-y="0.0" data-kind="shape"/>
          <use xlink:href="#mb7136d9652" x="104.832" y="42.424714" style="fill: #26857d; stroke: #26857d" id="cell-587375741-tuning.point.2" data-role="point" data-series="cell-587375741-tuning" data-index="2" data-x="1.5707963267948966" data-y="1.0" data-kind="shape"/>
          <use xlink:href="#mb7136d9652" x="104.832" y="89.964" style="fill: #26857d; stroke: #26857d" id="cell-587375741-tuning.point.3" data-role="point" data-series="cell-587375741-tuning" data-index="3" data-x="2.356194490192345" data-y="0.0" data-kind="shape"/>
          <use xlink:href="#mb7136d9652" x="104.832" y="89.964" style="fill: #26857d; stroke: #26857d" id="cell-587375741-tuning.point.4" data-role="point" data-series="cell-587375741-tuning" data-index="4" data-x="3.141592653589793" data-y="0.0" data-kind="shape"/>
          <use xlink:href="#mb7136d9652" x="104.832" y="89.964" style="fill: #26857d; stroke: #26857d" id="cell-587375741-tuning.point.5" data-role="point" data-series="cell-587375741-tuning" data-index="5" data-x="3.9269908169872414" data-y="0.0" data-kind="shape"/>
          <use xlink:href="#mb7136d9652" x="104.832" y="125.164856" style="fill: #26857d; stroke: #26857d" id="cell-587375741-tuning.point.6" data-role="point" data-series="cell-587375741-tuning" data-index="6" data-x="4.71238898038469" data-y="0.7404582406879578" data-kind="shape"/>
          <use xlink:href="#mb7136d9652" x="104.832" y="89.964" style="fill: #26857d; stroke: #26857d" id="cell-587375741-tuning.point.7" data-role="point" data-series="cell-587375741-tuning" data-index="7" data-x="5.497787143782138" data-y="0.0" data-kind="shape"/>
          <use xlink:href="#mb7136d9652" x="104.832" y="89.964" style="fill: #26857d; stroke: #26857d" id="cell-587375741-tuning.point.8" data-role="point" data-series="cell-587375741-tuning" data-index="8" data-x="0.0" data-y="0.0" data-kind="shape"/>
        </g>
      </g>
      <g id="cell-517472513-tuning.line" data-role="line" data-series="cell-517472513-tuning" data-kind="line">
        <path d="M 107.158652 89.964  L 104.832 89.964  L 104.832 89.964  L 93.031742 78.163742  L 57.292714 89.964  L 103.128657 91.667343  L 104.832 89.964  L 115.839549 100.971549  L 107.158652 89.964  " clip-path="url(#p0a86a2c8ad)" style="fill: none; stroke: #cc8249; stroke-width: 1.2; stroke-linecap: square"/>
      </g>
      <g id="cell-517472513-tuning.points" data-series="cell-517472513-tuning" data-kind="shape">
        <defs>
          <path id="m3804824b8e" d="M 0 1  C 0.265203 1 0.51958 0.894634 0.707107 0.707107  C 0.894634 0.51958 1 0.265203 1 0  C 1 -0.265203 0.894634 -0.51958 0.707107 -0.707107  C 0.51958 -0.894634 0.265203 -1 0 -1  C -0.265203 -1 -0.51958 -0.894634 -0.707107 -0.707107  C -0.894634 -0.51958 -1 -0.265203 -1 0  C -1 0.265203 -0.894634 0.51958 -0.707107 0.707107  C -0.51958 0.894634 -0.265203 1 0 1  z " style="stroke: #cc8249"/>
        </defs>
        <g clip-path="url(#p0a86a2c8ad)">
          <use xlink:href="#m3804824b8e" x="107.158652" y="89.964" style="fill: #cc8249; stroke: #cc8249" id="cell-517472513-tuning.point.0" data-role="point" data-series="cell-517472513-tuning" data-index="0" data-x="0.0" data-y="0.04894167718870147" data-kind="shape"/>
          <use xlink:href="#m3804824b8e" x="104.832" y="89.964" style="fill: #cc8249; stroke: #cc8249" id="cell-517472513-tuning.point.1" data-role="point" data-series="cell-517472513-tuning" data-index="1" data-x="0.7853981633974483" data-y="0.0" data-kind="shape"/>
          <use xlink:href="#m3804824b8e" x="104.832" y="89.964" style="fill: #cc8249; stroke: #cc8249" id="cell-517472513-tuning.point.2" data-role="point" data-series="cell-517472513-tuning" data-index="2" data-x="1.5707963267948966" data-y="0.0" data-kind="shape"/>
          <use xlink:href="#m3804824b8e" x="93.031742" y="78.163742" style="fill: #cc8249; stroke: #cc8249" id="cell-517472513-tuning.point.3" data-role="point" data-series="cell-517472513-tuning" data-index="3" data-x="2.356194490192345" data-y="0.35103778001617325" data-kind="shape"/>
          <use xlink:href="#m3804824b8e" x="57.292714" y="89.964" style="fill: #cc8249; stroke: #cc8249" id="cell-517472513-tuning.point.4" data-role="point" data-series="cell-517472513-tuning" data-index="4" data-x="3.141592653589793" data-y="1.0" data-kind="shape"/>
          <use xlink:href="#m3804824b8e" x="103.128657" y="91.667343" style="fill: #cc8249; stroke: #cc8249" id="cell-517472513-tuning.point.5" data-role="point" data-series="cell-517472513-tuning" data-index="5" data-x="3.9269908169872414" data-y="0.05067158483124548" data-kind="shape"/>
          <use xlink:href="#m3804824b8e" x="104.832" y="89.964" style="fill: #cc8249; stroke: #cc8249" id="cell-517472513-tuning.point.6" data-role="point" data-series="cell-517472513-tuning" data-index="6" data-x="4.71238898038469" data-y="0.0" data-kind="shape"/>
          <use xlink:href="#m3804824b8e" x="115.839549" y="100.971549" style="fill: #cc8249; stroke: #cc8249" id="cell-517472513-tuning.point.7" data-role="point" data-series="cell-517472513-tuning" data-index="7" data-x="5.497787143782138" data-y="0.3274560131655483" data-kind="shape"/>
          <use xlink:href="#m3804824b8e" x="107.158652" y="89.964" style="fill: #cc8249; stroke: #cc8249" id="cell-517472513-tuning.point.8" data-role="point" data-series="cell-517472513-tuning" data-index="8" data-x="0.0" data-y="0.04894167718870147" data-kind="shape"/>
        </g>
      </g>
      <g id="cell-517470879-tuning.line" data-role="line" data-series="cell-517470879-tuning" data-kind="line">
        <path d="M 104.832 89.964  L 107.032398 87.763602  L 104.832 61.745125  L 104.832 89.964  L 104.832 89.964  L 102.189177 92.606823  L 104.832 137.503286  L 104.832 89.964  L 104.832 89.964  " clip-path="url(#p0a86a2c8ad)" style="fill: none; stroke: #895d86; stroke-width: 1.2; stroke-linecap: square"/>
      </g>
      <g id="cell-517470879-tuning.points" data-series="cell-517470879-tuning" data-kind="shape">
        <defs>
          <path id="maebc60572f" d="M 0 1  C 0.265203 1 0.51958 0.894634 0.707107 0.707107  C 0.894634 0.51958 1 0.265203 1 0  C 1 -0.265203 0.894634 -0.51958 0.707107 -0.707107  C 0.51958 -0.894634 0.265203 -1 0 -1  C -0.265203 -1 -0.51958 -0.894634 -0.707107 -0.707107  C -0.894634 -0.51958 -1 -0.265203 -1 0  C -1 0.265203 -0.894634 0.51958 -0.707107 0.707107  C -0.51958 0.894634 -0.265203 1 0 1  z " style="stroke: #895d86"/>
        </defs>
        <g clip-path="url(#p0a86a2c8ad)">
          <use xlink:href="#maebc60572f" x="104.832" y="89.964" style="fill: #895d86; stroke: #895d86" id="cell-517470879-tuning.point.0" data-role="point" data-series="cell-517470879-tuning" data-index="0" data-x="0.0" data-y="0.0" data-kind="shape"/>
          <use xlink:href="#maebc60572f" x="107.032398" y="87.763602" style="fill: #895d86; stroke: #895d86" id="cell-517470879-tuning.point.1" data-role="point" data-series="cell-517470879-tuning" data-index="1" data-x="0.7853981633974483" data-y="0.06545812700541186" data-kind="shape"/>
          <use xlink:href="#maebc60572f" x="104.832" y="61.745125" style="fill: #895d86; stroke: #895d86" id="cell-517470879-tuning.point.2" data-role="point" data-series="cell-517470879-tuning" data-index="2" data-x="1.5707963267948966" data-y="0.5935906297523008" data-kind="shape"/>
          <use xlink:href="#maebc60572f" x="104.832" y="89.964" style="fill: #895d86; stroke: #895d86" id="cell-517470879-tuning.point.3" data-role="point" data-series="cell-517470879-tuning" data-index="3" data-x="2.356194490192345" data-y="0.0" data-kind="shape"/>
          <use xlink:href="#maebc60572f" x="104.832" y="89.964" style="fill: #895d86; stroke: #895d86" id="cell-517470879-tuning.point.4" data-role="point" data-series="cell-517470879-tuning" data-index="4" data-x="3.141592653589793" data-y="0.0" data-kind="shape"/>
          <use xlink:href="#maebc60572f" x="102.189177" y="92.606823" style="fill: #895d86; stroke: #895d86" id="cell-517470879-tuning.point.5" data-role="point" data-series="cell-517470879-tuning" data-index="5" data-x="3.9269908169872414" data-y="0.07861951337456181" data-kind="shape"/>
          <use xlink:href="#maebc60572f" x="104.832" y="137.503286" style="fill: #895d86; stroke: #895d86" id="cell-517470879-tuning.point.6" data-role="point" data-series="cell-517470879-tuning" data-index="6" data-x="4.71238898038469" data-y="1.0" data-kind="shape"/>
          <use xlink:href="#maebc60572f" x="104.832" y="89.964" style="fill: #895d86; stroke: #895d86" id="cell-517470879-tuning.point.7" data-role="point" data-series="cell-517470879-tuning" data-index="7" data-x="5.497787143782138" data-y="0.0" data-kind="shape"/>
          <use xlink:href="#maebc60572f" x="104.832" y="89.964" style="fill: #895d86; stroke: #895d86" id="cell-517470879-tuning.point.8" data-role="point" data-series="cell-517470879-tuning" data-index="8" data-x="0.0" data-y="0.0" data-kind="shape"/>
        </g>
      </g>
      <g id="axis.x.spine" data-role="spine" data-axis="x" data-kind="line">
        <path d="M 158.076 89.964  C 158.076 82.972062 156.698741 76.048112 154.023042 69.588403  C 151.347343 63.128695 147.42524 57.258853 142.481193 52.314807  C 137.537147 47.37076 131.667305 43.448657 125.207597 40.772958  C 118.747888 38.097259 111.823938 36.72 104.832 36.72  C 97.840062 36.72 90.916112 38.097259 84.456403 40.772958  C 77.996695 43.448657 72.126853 47.37076 67.182807 52.314807  C 62.23876 57.258853 58.316657 63.128695 55.640958 69.588403  C 52.965259 76.048112 51.588 82.972062 51.588 89.964  C 51.588 96.955938 52.965259 103.879888 55.640958 110.339597  C 58.316657 116.799305 62.23876 122.669147 67.182807 127.613193  C 72.126853 132.55724 77.996695 136.479343 84.456403 139.155042  C 90.916112 141.830741 97.840062 143.208 104.832 143.208  C 111.823938 143.208 118.747888 141.830741 125.207597 139.155042  C 131.667305 136.479343 137.537147 132.55724 142.481193 127.613193  C 147.42524 122.669147 151.347343 116.799305 154.023042 110.339597  C 156.698741 103.879888 158.076 96.955938 158.076 89.964  " style="fill: none; stroke: #c5ced1; stroke-width: 0.5; stroke-linejoin: miter; stroke-linecap: square"/>
      </g>
      <g id="figure.title" data-role="title" data-kind="text">
        <text style="font-size: 8.2px; font-family: 'Arial'; text-anchor: start; fill: #1b2838" x="51.588" y="16.72" transform="rotate(-0 51.588 16.72)">Direction tuning, cell by cell</text>
      </g>
      <g id="legend" data-role="legend" data-kind="container">
        <g id="text_1">
          <text style="font-size: 5.5px; font-family: 'Arial'; text-anchor: start; fill: #1b2838" x="173.23992" y="73.19999" transform="rotate(-0 173.23992 73.19999)">Cell ID suffix</text>
        </g>
        <g id="legend.entry.0.swatch" data-role="legend-swatch" data-index="0" data-kind="shape">
          <path d="M 175.218029 81.041231  L 179.248029 81.041231  L 183.278029 81.041231  " style="fill: none; stroke: #315c80; stroke-width: 1.2; stroke-linecap: square"/>
        </g>
        <g id="legend.entry.0.label" data-role="legend-label" data-index="0" data-kind="text">
          <text style="font-size: 6.2px; font-family: 'Arial'; text-anchor: start; fill: #1b2838" x="188.238029" y="83.211231" transform="rotate(-0 188.238029 83.211231)">0610</text>
        </g>
        <g id="legend.entry.1.swatch" data-role="legend-swatch" data-index="1" data-kind="shape">
          <path d="M 175.218029 91.199785  L 179.248029 91.199785  L 183.278029 91.199785  " style="fill: none; stroke: #26857d; stroke-width: 1.2; stroke-linecap: square"/>
        </g>
        <g id="legend.entry.1.label" data-role="legend-label" data-index="1" data-kind="text">
          <text style="font-size: 6.2px; font-family: 'Arial'; text-anchor: start; fill: #1b2838" x="188.238029" y="93.369785" transform="rotate(-0 188.238029 93.369785)">5741</text>
        </g>
        <g id="legend.entry.2.swatch" data-role="legend-swatch" data-index="2" data-kind="shape">
          <path d="M 175.218029 101.35834  L 179.248029 101.35834  L 183.278029 101.35834  " style="fill: none; stroke: #cc8249; stroke-width: 1.2; stroke-linecap: square"/>
        </g>
        <g id="legend.entry.2.label" data-role="legend-label" data-index="2" data-kind="text">
          <text style="font-size: 6.2px; font-family: 'Arial'; text-anchor: start; fill: #1b2838" x="188.238029" y="103.52834" transform="rotate(-0 188.238029 103.52834)">2513</text>
        </g>
        <g id="legend.entry.3.swatch" data-role="legend-swatch" data-index="3" data-kind="shape">
          <path d="M 175.218029 111.516895  L 179.248029 111.516895  L 183.278029 111.516895  " style="fill: none; stroke: #895d86; stroke-width: 1.2; stroke-linecap: square"/>
        </g>
        <g id="legend.entry.3.label" data-role="legend-label" data-index="3" data-kind="text">
          <text style="font-size: 6.2px; font-family: 'Arial'; text-anchor: start; fill: #1b2838" x="188.238029" y="113.686895" transform="rotate(-0 188.238029 113.686895)">0879</text>
        </g>
      </g>
    </g>
    <g id="annotation.0" data-role="annotation" data-kind="text">
      <text style="font-size: 5.6px; font-family: 'Arial'; text-anchor: start; fill: #8d969b" x="11.52" y="172.323375" transform="rotate(-0 11.52 172.323375)">Positive response / cell peak · best mean-response frequency</text>
    </g>
  </g>
  <defs>
    <clipPath id="p0a86a2c8ad">
      <path d="M 158.076 89.964  C 158.076 82.972062 156.698741 76.048112 154.023042 69.588403  C 151.347343 63.128695 147.42524 57.258853 142.481193 52.314807  C 137.537147 47.37076 131.667305 43.448657 125.207597 40.772958  C 118.747888 38.097259 111.823938 36.72 104.832 36.72  C 97.840062 36.72 90.916112 38.097259 84.456403 40.772958  C 77.996695 43.448657 72.126853 47.37076 67.182807 52.314807  C 62.23876 57.258853 58.316657 63.128695 55.640958 69.588403  C 52.965259 76.048112 51.588 82.972062 51.588 89.964  C 51.588 96.955938 52.965259 103.879888 55.640958 110.339597  C 58.316657 116.799305 62.23876 122.669147 67.182807 127.613193  C 72.126853 132.55724 77.996695 136.479343 84.456403 139.155042  C 90.916112 141.830741 97.840062 143.208 104.832 143.208  C 111.823938 143.208 118.747888 141.830741 125.207597 139.155042  C 131.667305 136.479343 137.537147 132.55724 142.481193 127.613193  C 147.42524 122.669147 151.347343 116.799305 154.023042 110.339597  C 156.698741 103.879888 158.076 96.955938 158.076 89.964  M 104.832 89.964  C 104.832 89.964 104.832 89.964 104.832 89.964  C 104.832 89.964 104.832 89.964 104.832 89.964  C 104.832 89.964 104.832 89.964 104.832 89.964  C 104.832 89.964 104.832 89.964 104.832 89.964  C 104.832 89.964 104.832 89.964 104.832 89.964  C 104.832 89.964 104.832 89.964 104.832 89.964  C 104.832 89.964 104.832 89.964 104.832 89.964  C 104.832 89.964 104.832 89.964 104.832 89.964  C 104.832 89.964 104.832 89.964 104.832 89.964  C 104.832 89.964 104.832 89.964 104.832 89.964  C 104.832 89.964 104.832 89.964 104.832 89.964  C 104.832 89.964 104.832 89.964 104.832 89.964  C 104.832 89.964 104.832 89.964 104.832 89.964  C 104.832 89.964 104.832 89.964 104.832 89.964  C 104.832 89.964 104.832 89.964 104.832 89.964  C 104.832 89.964 104.832 89.964 104.832 89.964  z "/>
    </clipPath>
  </defs>
</svg>
