<?xml version="1.0" encoding="utf-8" standalone="no"?>
<svg xmlns:xlink="http://www.w3.org/1999/xlink" xmlns="http://www.w3.org/2000/svg" width="248.4pt" height="234pt" viewBox="0 0 248.4 234" version="1.1" data-fluxplot="1" data-plot-type="line">
  <defs>
    <style type="text/css">*{stroke-linejoin: round; stroke-linecap: butt}</style>
  </defs>
  <g id="figure" data-role="figure" data-kind="container">
    <g id="patch_1">
      <path d="M 0 234  L 248.4 234  L 248.4 0  L 0 0  z " style="fill: #ffffff"/>
    </g>
    <g id="plot-area" data-role="plot-area" data-kind="container">
      <g id="patch_2">
        <path d="M 63.342 198.9  L 239.706 198.9  L 239.706 8.19  L 63.342 8.19  z " style="fill: #ffffff"/>
      </g>
      <g id="extra.line.0" data-role="extra" data-index="0" data-kind="line">
        <path d="M 63.342 35.434286  L 239.706 35.434286  " clip-path="url(#morph-def-006)" style="fill: none; stroke: #dad8ce; stroke-width: 0.45; stroke-linecap: round"/>
      </g>
      <g id="extra.line.1" data-role="extra" data-index="1" data-kind="line">
        <path d="M 63.342 66.393701  L 239.706 66.393701  " clip-path="url(#morph-def-006)" style="fill: none; stroke: #dad8ce; stroke-width: 0.45; stroke-linecap: round"/>
      </g>
      <g id="extra.line.2" data-role="extra" data-index="2" data-kind="line">
        <path d="M 63.342 97.353117  L 239.706 97.353117  " clip-path="url(#morph-def-006)" style="fill: none; stroke: #dad8ce; stroke-width: 0.45; stroke-linecap: round"/>
      </g>
      <g id="extra.line.3" data-role="extra" data-index="3" data-kind="line">
        <path d="M 63.342 128.312532  L 239.706 128.312532  " clip-path="url(#morph-def-006)" style="fill: none; stroke: #dad8ce; stroke-width: 0.45; stroke-linecap: round"/>
      </g>
      <g id="extra.line.4" data-role="extra" data-index="4" data-kind="line">
        <path d="M 63.342 159.271948  L 239.706 159.271948  " clip-path="url(#morph-def-006)" style="fill: none; stroke: #dad8ce; stroke-width: 0.45; stroke-linecap: round"/>
      </g>
      <g id="extra.line.5" data-role="extra" data-index="5" data-kind="line">
        <path d="M 63.342 190.231364  L 239.706 190.231364  " clip-path="url(#morph-def-006)" style="fill: none; stroke: #dad8ce; stroke-width: 0.45; stroke-linecap: round"/>
      </g>
      <g id="axis.x" data-role="axis" data-axis="x" data-kind="container">
        <g id="xtick_1">
          <g id="axis.x.tick.0" data-role="tick" data-axis="x" data-index="0" data-kind="line">
            <path d="M 0 0  L 0 3  " transform="translate(63.342 198.9)" style="stroke: #575653; stroke-width: 0.65; fill: #575653"/>
          </g>
          <g id="axis.x.ticklabel.0" data-role="tick-label" data-axis="x" data-index="0" data-kind="text">
            <text style="font-size: 5px; font-family: 'Arial', 'Helvetica', 'Lato', 'Helvetica Neue', 'DejaVu Sans', sans-serif; text-anchor: middle; fill: #100f0f" x="63.342" y="209.040137" transform="rotate(-0 63.342 209.040137)">0</text>
          </g>
        </g>
        <g id="xtick_2">
          <g id="axis.x.tick.1" data-role="tick" data-axis="x" data-index="1" data-kind="line">
            <path d="M 0 0  L 0 3  " transform="translate(107.433 198.9)" style="stroke: #575653; stroke-width: 0.65; fill: #575653"/>
          </g>
          <g id="axis.x.ticklabel.1" data-role="tick-label" data-axis="x" data-index="1" data-kind="text">
            <text style="font-size: 5px; font-family: 'Arial', 'Helvetica', 'Lato', 'Helvetica Neue', 'DejaVu Sans', sans-serif; text-anchor: middle; fill: #100f0f" x="107.433" y="209.040137" transform="rotate(-0 107.433 209.040137)">90</text>
          </g>
        </g>
        <g id="xtick_3">
          <g id="axis.x.tick.2" data-role="tick" data-axis="x" data-index="2" data-kind="line">
            <path d="M 0 0  L 0 3  " transform="translate(151.524 198.9)" style="stroke: #575653; stroke-width: 0.65; fill: #575653"/>
          </g>
          <g id="axis.x.ticklabel.2" data-role="tick-label" data-axis="x" data-index="2" data-kind="text">
            <text style="font-size: 5px; font-family: 'Arial', 'Helvetica', 'Lato', 'Helvetica Neue', 'DejaVu Sans', sans-serif; text-anchor: middle; fill: #100f0f" x="151.524" y="209.040137" transform="rotate(-0 151.524 209.040137)">180</text>
          </g>
        </g>
        <g id="xtick_4">
          <g id="axis.x.tick.3" data-role="tick" data-axis="x" data-index="3" data-kind="line">
            <path d="M 0 0  L 0 3  " transform="translate(195.615 198.9)" style="stroke: #575653; stroke-width: 0.65; fill: #575653"/>
          </g>
          <g id="axis.x.ticklabel.3" data-role="tick-label" data-axis="x" data-index="3" data-kind="text">
            <text style="font-size: 5px; font-family: 'Arial', 'Helvetica', 'Lato', 'Helvetica Neue', 'DejaVu Sans', sans-serif; text-anchor: middle; fill: #100f0f" x="195.615" y="209.040137" transform="rotate(-0 195.615 209.040137)">270</text>
          </g>
        </g>
        <g id="xtick_5">
          <g id="axis.x.tick.4" data-role="tick" data-axis="x" data-index="4" data-kind="line">
            <path d="M 0 0  L 0 3  " transform="translate(239.706 198.9)" style="stroke: #575653; stroke-width: 0.65; fill: #575653"/>
          </g>
          <g id="axis.x.ticklabel.4" data-role="tick-label" data-axis="x" data-index="4" data-kind="text">
            <text style="font-size: 5px; font-family: 'Arial', 'Helvetica', 'Lato', 'Helvetica Neue', 'DejaVu Sans', sans-serif; text-anchor: middle; fill: #100f0f" x="239.706" y="209.040137" transform="rotate(-0 239.706 209.040137)">360</text>
          </g>
        </g>
        <g id="axis.x.title" data-role="axis-title" data-axis="x" data-kind="text">
          <text style="font-size: 6px; font-family: 'Arial', 'Helvetica', 'Lato', 'Helvetica Neue', 'DejaVu Sans', sans-serif; text-anchor: middle; fill: #100f0f" x="151.524" y="220.460547" transform="rotate(-0 151.524 220.460547)">Drift direction (°)</text>
        </g>
      </g>
      <g id="axis.y" data-role="axis" data-axis="y" data-kind="container">
        <g id="ytick_1">
          <g id="axis.y.tick.0" data-role="tick" data-axis="y" data-index="0" data-kind="line"/>
          <g id="axis.y.ticklabel.0" data-role="tick-label" data-axis="y" data-index="0" data-kind="text">
            <text style="font-size: 5px; font-family: 'Arial', 'Helvetica', 'Lato', 'Helvetica Neue', 'DejaVu Sans', sans-serif; text-anchor: end; fill: #100f0f" x="58.342" y="37.254354" transform="rotate(-0 58.342 37.254354)">517470610</text>
          </g>
        </g>
        <g id="ytick_2">
          <g id="axis.y.tick.1" data-role="tick" data-axis="y" data-index="1" data-kind="line"/>
          <g id="axis.y.ticklabel.1" data-role="tick-label" data-axis="y" data-index="1" data-kind="text">
            <text style="font-size: 5px; font-family: 'Arial', 'Helvetica', 'Lato', 'Helvetica Neue', 'DejaVu Sans', sans-serif; text-anchor: end; fill: #100f0f" x="58.342" y="68.21377" transform="rotate(-0 58.342 68.21377)">517470181</text>
          </g>
        </g>
        <g id="ytick_3">
          <g id="axis.y.tick.2" data-role="tick" data-axis="y" data-index="2" data-kind="line"/>
          <g id="axis.y.ticklabel.2" data-role="tick-label" data-axis="y" data-index="2" data-kind="text">
            <text style="font-size: 5px; font-family: 'Arial', 'Helvetica', 'Lato', 'Helvetica Neue', 'DejaVu Sans', sans-serif; text-anchor: end; fill: #100f0f" x="58.342" y="99.173185" transform="rotate(-0 58.342 99.173185)">587375741</text>
          </g>
        </g>
        <g id="ytick_4">
          <g id="axis.y.tick.3" data-role="tick" data-axis="y" data-index="3" data-kind="line"/>
          <g id="axis.y.ticklabel.3" data-role="tick-label" data-axis="y" data-index="3" data-kind="text">
            <text style="font-size: 5px; font-family: 'Arial', 'Helvetica', 'Lato', 'Helvetica Neue', 'DejaVu Sans', sans-serif; text-anchor: end; fill: #100f0f" x="58.342" y="130.132601" transform="rotate(-0 58.342 130.132601)">517472541</text>
          </g>
        </g>
        <g id="ytick_5">
          <g id="axis.y.tick.4" data-role="tick" data-axis="y" data-index="4" data-kind="line"/>
          <g id="axis.y.ticklabel.4" data-role="tick-label" data-axis="y" data-index="4" data-kind="text">
            <text style="font-size: 5px; font-family: 'Arial', 'Helvetica', 'Lato', 'Helvetica Neue', 'DejaVu Sans', sans-serif; text-anchor: end; fill: #100f0f" x="58.342" y="161.092016" transform="rotate(-0 58.342 161.092016)">517470177</text>
          </g>
        </g>
        <g id="ytick_6">
          <g id="axis.y.tick.5" data-role="tick" data-axis="y" data-index="5" data-kind="line"/>
          <g id="axis.y.ticklabel.5" data-role="tick-label" data-axis="y" data-index="5" data-kind="text">
            <text style="font-size: 5px; font-family: 'Arial', 'Helvetica', 'Lato', 'Helvetica Neue', 'DejaVu Sans', sans-serif; text-anchor: end; fill: #100f0f" x="58.342" y="192.051432" transform="rotate(-0 58.342 192.051432)">517470480</text>
          </g>
        </g>
        <g id="axis.y.title" data-role="axis-title" data-axis="y" data-kind="text">
          <text style="font-size: 6px; font-family: 'Arial', 'Helvetica', 'Lato', 'Helvetica Neue', 'DejaVu Sans', sans-serif; text-anchor: middle; fill: #100f0f" x="26.055086" y="103.545" transform="rotate(-90 26.055086 103.545)">Cell ID · normalized response</text>
        </g>
      </g>
      <g id="axis.x.spine" data-role="spine" data-axis="x" data-kind="line">
        <path d="M 63.342 198.9  L 239.706 198.9  " style="fill: none; stroke: #575653; stroke-width: 0.65; stroke-linejoin: miter; stroke-linecap: square"/>
      </g>
      <g id="cell-517470610-guide.line" data-role="line" data-series="cell-517470610-guide" data-kind="line">
        <path d="M 63.342 24.255273  L 67.7511 28.499981  L 71.057925 31.423624  L 74.36475 33.983874  L 76.5693 35.426319  L 78.77385 36.613502  L 80.9784 37.507921  L 83.18295 38.072073  L 85.3875 38.268458  L 89.7966 38.129855  L 95.307975 37.690337  L 105.22845 36.845581  L 110.739825 36.684108  L 129.4785 36.393618  L 130.580775 36.231522  L 131.68305 35.833835  L 132.785325 35.226933  L 133.8876 34.437187  L 136.09215 32.414665  L 138.2967 29.977261  L 144.91035 22.285675  L 147.1149 20.298662  L 148.217175 19.531998  L 149.31945 18.951727  L 150.421725 18.584224  L 151.524 18.455861  L 152.626275 18.583348  L 153.72855 18.948223  L 154.830825 19.52411  L 155.9331 20.284633  L 158.13765 22.25408  L 160.3422 24.645551  L 166.95585 32.241988  L 169.1604 34.211434  L 170.262675 34.971957  L 171.36495 35.547845  L 172.467225 35.91272  L 173.5695 36.040206  L 181.285425 35.931922  L 196.717275 35.6613  L 202.22865 35.817422  L 217.6605 36.403769  L 219.86505 36.230982  L 222.0696 35.73542  L 224.27415 34.951286  L 226.4787 33.912781  L 228.68325 32.654108  L 231.990075 30.428098  L 235.2969 27.899093  L 239.706 24.255273  L 239.706 24.255273  " clip-path="url(#morph-def-006)" style="fill: none; stroke: #205ea6; stroke-width: 1.15; stroke-linecap: round"/>
      </g>
      <g id="cell-517470181-guide.line" data-role="line" data-series="cell-517470181-guide" data-kind="line">
        <path d="M 63.342 66.654736  L 66.648825 64.55584  L 69.95565 62.803397  L 73.262475 61.395043  L 76.5693 60.328413  L 79.876125 59.601144  L 83.18295 59.210871  L 85.3875 59.136741  L 87.59205 59.338719  L 89.7966 59.889336  L 92.00115 60.705616  L 95.307975 62.246646  L 100.81935 64.967864  L 103.0239 65.867831  L 105.22845 66.53561  L 107.433 66.888225  L 115.148925 67.342785  L 127.27395 67.75692  L 151.524 68.409605  L 152.626275 68.338739  L 153.72855 68.135916  L 155.9331 67.393046  L 158.13765 66.298291  L 161.444475 64.252956  L 165.853575 61.388999  L 168.058125 60.162287  L 170.262675 59.228813  L 171.36495 58.908694  L 172.467225 58.705871  L 173.5695 58.635006  L 174.671775 58.697881  L 176.876325 59.161856  L 179.080875 59.990073  L 181.285425 61.078462  L 185.694525 63.619484  L 189.00135 65.43419  L 191.2059 66.405502  L 193.41045 67.064607  L 194.512725 67.244559  L 196.717275 67.305767  L 207.740025 67.158261  L 235.2969 66.716269  L 239.706 66.654736  L 239.706 66.654736  " clip-path="url(#morph-def-006)" style="fill: none; stroke: #24837b; stroke-width: 1.15; stroke-linecap: round"/>
      </g>
      <g id="cell-587375741-guide.line" data-role="line" data-series="cell-587375741-guide" data-kind="line">
        <path d="M 63.342 98.206319  L 72.1602 98.098044  L 80.9784 97.78294  L 85.3875 97.552384  L 86.489775 97.336516  L 87.59205 96.837138  L 88.694325 96.086104  L 89.7966 95.115267  L 92.00115 92.641603  L 94.2057 89.670976  L 99.717075 81.742524  L 101.921625 79.039321  L 103.0239 77.915458  L 104.126175 76.985894  L 105.22845 76.282481  L 106.330725 75.837074  L 107.433 75.681526  L 108.535275 75.846465  L 109.63755 76.318576  L 110.739825 77.063802  L 111.8421 78.048083  L 112.944375 79.237361  L 115.148925 82.094675  L 118.45575 87.066667  L 121.762575 92.044481  L 123.967125 94.912147  L 125.0694 96.108542  L 126.171675 97.101234  L 127.27395 97.856164  L 128.376225 98.339273  L 129.4785 98.516504  L 150.421725 98.646305  L 158.13765 98.53989  L 165.853575 98.165797  L 173.5695 97.556528  L 174.671775 97.346516  L 175.77405 96.936024  L 176.876325 96.347895  L 179.080875 94.730098  L 181.285425 92.67587  L 185.694525 87.989101  L 187.899075 85.72205  L 190.103625 83.749548  L 191.2059 82.930861  L 192.308175 82.25434  L 193.41045 81.742829  L 194.512725 81.419171  L 195.615 81.306209  L 196.717275 81.437619  L 197.81955 81.813723  L 198.921825 82.407333  L 200.0241 83.191261  L 202.22865 85.221318  L 204.4332 87.686386  L 211.04685 95.516604  L 213.2514 97.54666  L 214.353675 98.330588  L 215.45595 98.924199  L 216.558225 99.300303  L 217.6605 99.431713  L 227.580975 99.320049  L 233.09235 99.011403  L 237.50145 98.538401  L 239.706 98.206319  L 239.706 98.206319  " clip-path="url(#morph-def-006)" style="fill: none; stroke: #228833; stroke-width: 1.15; stroke-linecap: round"/>
      </g>
      <g id="cell-517472541-guide.line" data-role="line" data-series="cell-517472541-guide" data-kind="line">
        <path d="M 63.342 130.88724  L 78.77385 130.602075  L 90.898875 130.591768  L 107.433 130.719719  L 108.535275 130.552225  L 109.63755 130.072845  L 110.739825 129.316232  L 111.8421 128.317042  L 112.944375 127.109927  L 115.148925 124.210543  L 118.45575 119.168385  L 121.762575 114.126228  L 123.967125 111.226843  L 125.0694 110.019729  L 126.171675 109.020538  L 127.27395 108.263926  L 128.376225 107.784545  L 129.4785 107.617051  L 130.580775 107.768446  L 131.68305 108.202113  L 132.785325 108.887276  L 133.8876 109.793157  L 134.989875 110.888979  L 137.194425 113.527342  L 140.50125 118.140028  L 143.808075 122.80024  L 146.012625 125.523093  L 147.1149 126.677003  L 148.217175 127.651533  L 149.31945 128.415906  L 150.421725 128.939345  L 151.524 129.191073  L 159.239925 129.81631  L 166.95585 130.19478  L 173.5695 130.301575  L 185.694525 130.190297  L 195.615 129.939025  L 196.717275 129.748013  L 197.81955 129.267854  L 198.921825 128.530876  L 200.0241 127.569402  L 202.22865 125.102272  L 204.4332 122.125069  L 211.04685 112.719048  L 213.2514 110.287583  L 214.353675 109.349292  L 215.45595 108.639062  L 216.558225 108.189218  L 217.6605 108.032087  L 218.762775 108.090351  L 219.86505 108.264905  L 220.967325 108.555395  L 223.171875 109.482758  L 225.376425 110.869594  L 227.580975 112.713059  L 229.785525 115.010308  L 231.990075 117.758498  L 234.194625 120.954782  L 236.399175 124.596316  L 238.603725 128.680256  L 239.706 130.88724  L 239.706 130.88724  " clip-path="url(#morph-def-006)" style="fill: none; stroke: #bc5215; stroke-width: 1.15; stroke-linecap: round"/>
      </g>
      <g id="cell-517470177-guide.line" data-role="line" data-series="cell-517470177-guide" data-kind="line">
        <path d="M 63.342 158.918503  L 66.648825 156.688433  L 69.95565 154.830861  L 73.262475 153.34157  L 75.467025 152.551227  L 77.671575 151.921442  L 79.876125 151.450964  L 82.080675 151.138544  L 84.285225 150.982933  L 86.489775 151.022603  L 88.694325 151.458983  L 90.898875 152.239416  L 93.103425 153.267562  L 97.512525 155.681629  L 100.81935 157.425891  L 103.0239 158.376529  L 105.22845 159.045006  L 107.433 159.334981  L 120.6603 159.632645  L 132.785325 159.688968  L 152.626275 159.527172  L 157.035375 159.289231  L 172.467225 158.129191  L 175.77405 158.179186  L 179.080875 158.452828  L 184.59225 159.186275  L 191.2059 160.031206  L 194.512725 160.237638  L 200.0241 160.208297  L 209.944575 159.894947  L 229.785525 159.240974  L 239.706 158.918503  L 239.706 158.918503  " clip-path="url(#morph-def-006)" style="fill: none; stroke: #5e409d; stroke-width: 1.15; stroke-linecap: round"/>
      </g>
      <g id="cell-517470480-guide.line" data-role="line" data-series="cell-517470480-guide" data-kind="line">
        <path d="M 63.342 189.965658  L 88.694325 189.873396  L 94.2057 189.467698  L 104.126175 188.652177  L 108.535275 188.578593  L 112.944375 188.800682  L 119.558025 189.442433  L 126.171675 190.054393  L 130.580775 190.232676  L 146.012625 190.441892  L 175.77405 190.682445  L 179.080875 190.207673  L 183.489975 189.211853  L 190.103625 187.662595  L 193.41045 187.187822  L 195.615 187.084168  L 197.81955 187.197646  L 200.0241 187.505659  L 203.330925 188.226043  L 213.2514 190.715472  L 215.45595 191.023484  L 217.6605 191.136963  L 227.580975 191.030227  L 233.09235 190.735205  L 237.50145 190.283082  L 239.706 189.965658  L 239.706 189.965658  " clip-path="url(#morph-def-006)" style="fill: none; stroke: #a02f6f; stroke-width: 1.15; stroke-linecap: round"/>
      </g>
      <g id="cell-517470610-means.points" data-series="cell-517470610-means" data-kind="shape">
        <defs>
          <path id="morph-def-000" d="M 0 1.414214  C 0.375054 1.414214 0.734797 1.265203 1 1  C 1.265203 0.734797 1.414214 0.375054 1.414214 0  C 1.414214 -0.375054 1.265203 -0.734797 1 -1  C 0.734797 -1.265203 0.375054 -1.414214 0 -1.414214  C -0.375054 -1.414214 -0.734797 -1.265203 -1 -1  C -1.265203 -0.734797 -1.414214 -0.375054 -1.414214 0  C -1.414214 0.375054 -1.265203 0.734797 -1 1  C -0.734797 1.265203 -0.375054 1.414214 0 1.414214  z " style="stroke: #fffcf0; stroke-width: 0.35"/>
        </defs>
        <g clip-path="url(#morph-def-006)">
          <use xlink:href="#morph-def-000" x="63.342" y="24.255273" style="fill: #205ea6; stroke: #fffcf0; stroke-width: 0.35" id="cell-517470610-means.point.0" data-role="point" data-series="cell-517470610-means" data-index="0" data-x="0.0" data-y="5.3610860287747295" data-kind="shape"/>
          <use xlink:href="#morph-def-000" x="85.3875" y="38.268458" style="fill: #205ea6; stroke: #fffcf0; stroke-width: 0.35" id="cell-517470610-means.point.1" data-role="point" data-series="cell-517470610-means" data-index="1" data-x="45.0" data-y="4.908455239500877" data-kind="shape"/>
          <use xlink:href="#morph-def-000" x="107.433" y="36.755882" style="fill: #205ea6; stroke: #fffcf0; stroke-width: 0.35" id="cell-517470610-means.point.2" data-role="point" data-series="cell-517470610-means" data-index="2" data-x="90.0" data-y="4.957311987636198" data-kind="shape"/>
          <use xlink:href="#morph-def-000" x="129.4785" y="36.393618" style="fill: #205ea6; stroke: #fffcf0; stroke-width: 0.35" id="cell-517470610-means.point.3" data-role="point" data-series="cell-517470610-means" data-index="3" data-x="135.0" data-y="4.969013243162782" data-kind="shape"/>
          <use xlink:href="#morph-def-000" x="151.524" y="18.455861" style="fill: #205ea6; stroke: #fffcf0; stroke-width: 0.35" id="cell-517470610-means.point.4" data-role="point" data-series="cell-517470610-means" data-index="4" data-x="180.0" data-y="5.548409067857595" data-kind="shape"/>
          <use xlink:href="#morph-def-000" x="173.5695" y="36.040206" style="fill: #205ea6; stroke: #fffcf0; stroke-width: 0.35" id="cell-517470610-means.point.5" data-role="point" data-series="cell-517470610-means" data-index="5" data-x="225.0" data-y="4.980428556742518" data-kind="shape"/>
          <use xlink:href="#morph-def-000" x="195.615" y="35.655878" style="fill: #205ea6; stroke: #fffcf0; stroke-width: 0.35" id="cell-517470610-means.point.6" data-role="point" data-series="cell-517470610-means" data-index="6" data-x="270.0" data-y="4.992842505611137" data-kind="shape"/>
          <use xlink:href="#morph-def-000" x="217.6605" y="36.403769" style="fill: #205ea6; stroke: #fffcf0; stroke-width: 0.35" id="cell-517470610-means.point.7" data-role="point" data-series="cell-517470610-means" data-index="7" data-x="315.0" data-y="4.968685333387346" data-kind="shape"/>
        </g>
      </g>
      <g id="cell-517470181-means.points" data-series="cell-517470181-means" data-kind="shape">
        <defs>
          <path id="morph-def-001" d="M 0 1.414214  C 0.375054 1.414214 0.734797 1.265203 1 1  C 1.265203 0.734797 1.414214 0.375054 1.414214 0  C 1.414214 -0.375054 1.265203 -0.734797 1 -1  C 0.734797 -1.265203 0.375054 -1.414214 0 -1.414214  C -0.375054 -1.414214 -0.734797 -1.265203 -1 -1  C -1.265203 -0.734797 -1.414214 -0.375054 -1.414214 0  C -1.414214 0.375054 -1.265203 0.734797 -1 1  C -0.734797 1.265203 -0.375054 1.414214 0 1.414214  z " style="stroke: #fffcf0; stroke-width: 0.35"/>
        </defs>
        <g clip-path="url(#morph-def-006)">
          <use xlink:href="#morph-def-001" x="63.342" y="66.654736" style="fill: #24837b; stroke: #fffcf0; stroke-width: 0.35" id="cell-517470181-means.point.0" data-role="point" data-series="cell-517470181-means" data-index="0" data-x="0.0" data-y="3.9915684808651237" data-kind="shape"/>
          <use xlink:href="#morph-def-001" x="85.3875" y="59.136741" style="fill: #24837b; stroke: #fffcf0; stroke-width: 0.35" id="cell-517470181-means.point.1" data-role="point" data-series="cell-517470181-means" data-index="1" data-x="45.0" data-y="4.234402356448312" data-kind="shape"/>
          <use xlink:href="#morph-def-001" x="107.433" y="66.888225" style="fill: #24837b; stroke: #fffcf0; stroke-width: 0.35" id="cell-517470181-means.point.2" data-role="point" data-series="cell-517470181-means" data-index="2" data-x="90.0" data-y="3.9840266964454583" data-kind="shape"/>
          <use xlink:href="#morph-def-001" x="129.4785" y="67.826387" style="fill: #24837b; stroke: #fffcf0; stroke-width: 0.35" id="cell-517470181-means.point.3" data-role="point" data-series="cell-517470181-means" data-index="3" data-x="135.0" data-y="3.953723738663109" data-kind="shape"/>
          <use xlink:href="#morph-def-001" x="151.524" y="68.409605" style="fill: #24837b; stroke: #fffcf0; stroke-width: 0.35" id="cell-517470181-means.point.4" data-role="point" data-series="cell-517470181-means" data-index="4" data-x="180.0" data-y="3.9348856140715034" data-kind="shape"/>
          <use xlink:href="#morph-def-001" x="173.5695" y="58.635006" style="fill: #24837b; stroke: #fffcf0; stroke-width: 0.35" id="cell-517470181-means.point.5" data-role="point" data-series="cell-517470181-means" data-index="5" data-x="225.0" data-y="4.250608595519389" data-kind="shape"/>
          <use xlink:href="#morph-def-001" x="195.615" y="67.307435" style="fill: #24837b; stroke: #fffcf0; stroke-width: 0.35" id="cell-517470181-means.point.6" data-role="point" data-series="cell-517470181-means" data-index="6" data-x="270.0" data-y="3.9704860959853936" data-kind="shape"/>
          <use xlink:href="#morph-def-001" x="217.6605" y="66.970675" style="fill: #24837b; stroke: #fffcf0; stroke-width: 0.35" id="cell-517470181-means.point.7" data-role="point" data-series="cell-517470181-means" data-index="7" data-x="315.0" data-y="3.9813635431937002" data-kind="shape"/>
        </g>
      </g>
      <g id="cell-587375741-means.points" data-series="cell-587375741-means" data-kind="shape">
        <defs>
          <path id="morph-def-002" d="M 0 1.414214  C 0.375054 1.414214 0.734797 1.265203 1 1  C 1.265203 0.734797 1.414214 0.375054 1.414214 0  C 1.414214 -0.375054 1.265203 -0.734797 1 -1  C 0.734797 -1.265203 0.375054 -1.414214 0 -1.414214  C -0.375054 -1.414214 -0.734797 -1.265203 -1 -1  C -1.265203 -0.734797 -1.414214 -0.375054 -1.414214 0  C -1.414214 0.375054 -1.265203 0.734797 -1 1  C -0.734797 1.265203 -0.375054 1.414214 0 1.414214  z " style="stroke: #fffcf0; stroke-width: 0.35"/>
        </defs>
        <g clip-path="url(#morph-def-006)">
          <use xlink:href="#morph-def-002" x="63.342" y="98.206319" style="fill: #228833; stroke: #fffcf0; stroke-width: 0.35" id="cell-587375741-means.point.0" data-role="point" data-series="cell-587375741-means" data-index="0" data-x="0.0" data-y="2.972441273190128" data-kind="shape"/>
          <use xlink:href="#morph-def-002" x="85.3875" y="97.552384" style="fill: #228833; stroke: #fffcf0; stroke-width: 0.35" id="cell-587375741-means.point.1" data-role="point" data-series="cell-587375741-means" data-index="1" data-x="45.0" data-y="2.99356360410197" data-kind="shape"/>
          <use xlink:href="#morph-def-002" x="107.433" y="75.681526" style="fill: #228833; stroke: #fffcf0; stroke-width: 0.35" id="cell-587375741-means.point.2" data-role="point" data-series="cell-587375741-means" data-index="2" data-x="90.0" data-y="3.7" data-kind="shape"/>
          <use xlink:href="#morph-def-002" x="129.4785" y="98.516504" style="fill: #228833; stroke: #fffcf0; stroke-width: 0.35" id="cell-587375741-means.point.3" data-role="point" data-series="cell-587375741-means" data-index="3" data-x="135.0" data-y="2.9624221722118587" data-kind="shape"/>
          <use xlink:href="#morph-def-002" x="151.524" y="98.646634" style="fill: #228833; stroke: #fffcf0; stroke-width: 0.35" id="cell-587375741-means.point.4" data-role="point" data-series="cell-587375741-means" data-index="4" data-x="180.0" data-y="2.9582189374627013" data-kind="shape"/>
          <use xlink:href="#morph-def-002" x="173.5695" y="97.556528" style="fill: #228833; stroke: #fffcf0; stroke-width: 0.35" id="cell-587375741-means.point.5" data-role="point" data-series="cell-587375741-means" data-index="5" data-x="225.0" data-y="2.9934297384154305" data-kind="shape"/>
          <use xlink:href="#morph-def-002" x="195.615" y="81.306209" style="fill: #228833; stroke: #fffcf0; stroke-width: 0.35" id="cell-587375741-means.point.6" data-role="point" data-series="cell-587375741-means" data-index="6" data-x="270.0" data-y="3.5183207684815705" data-kind="shape"/>
          <use xlink:href="#morph-def-002" x="217.6605" y="99.431713" style="fill: #228833; stroke: #fffcf0; stroke-width: 0.35" id="cell-587375741-means.point.7" data-role="point" data-series="cell-587375741-means" data-index="7" data-x="315.0" data-y="2.9328606223600953" data-kind="shape"/>
        </g>
      </g>
      <g id="cell-517472541-means.points" data-series="cell-517472541-means" data-kind="shape">
        <defs>
          <path id="morph-def-003" d="M 0 1.414214  C 0.375054 1.414214 0.734797 1.265203 1 1  C 1.265203 0.734797 1.414214 0.375054 1.414214 0  C 1.414214 -0.375054 1.265203 -0.734797 1 -1  C 0.734797 -1.265203 0.375054 -1.414214 0 -1.414214  C -0.375054 -1.414214 -0.734797 -1.265203 -1 -1  C -1.265203 -0.734797 -1.414214 -0.375054 -1.414214 0  C -1.414214 0.375054 -1.265203 0.734797 -1 1  C -0.734797 1.265203 -0.375054 1.414214 0 1.414214  z " style="stroke: #fffcf0; stroke-width: 0.35"/>
        </defs>
        <g clip-path="url(#morph-def-006)">
          <use xlink:href="#morph-def-003" x="63.342" y="130.88724" style="fill: #bc5215; stroke: #fffcf0; stroke-width: 0.35" id="cell-517472541-means.point.0" data-role="point" data-series="cell-517472541-means" data-index="0" data-x="0.0" data-y="1.9168360549975783" data-kind="shape"/>
          <use xlink:href="#morph-def-003" x="85.3875" y="130.568073" style="fill: #bc5215; stroke: #fffcf0; stroke-width: 0.35" id="cell-517472541-means.point.1" data-role="point" data-series="cell-517472541-means" data-index="1" data-x="45.0" data-y="1.927145251788053" data-kind="shape"/>
          <use xlink:href="#morph-def-003" x="107.433" y="130.719719" style="fill: #bc5215; stroke: #fffcf0; stroke-width: 0.35" id="cell-517472541-means.point.2" data-role="point" data-series="cell-517472541-means" data-index="2" data-x="90.0" data-y="1.9222470197655896" data-kind="shape"/>
          <use xlink:href="#morph-def-003" x="129.4785" y="107.617051" style="fill: #bc5215; stroke: #fffcf0; stroke-width: 0.35" id="cell-517472541-means.point.3" data-role="point" data-series="cell-517472541-means" data-index="3" data-x="135.0" data-y="2.6684713184799556" data-kind="shape"/>
          <use xlink:href="#morph-def-003" x="151.524" y="129.191073" style="fill: #bc5215; stroke: #fffcf0; stroke-width: 0.35" id="cell-517472541-means.point.4" data-role="point" data-series="cell-517472541-means" data-index="4" data-x="180.0" data-y="1.9716228286675597" data-kind="shape"/>
          <use xlink:href="#morph-def-003" x="173.5695" y="130.301575" style="fill: #bc5215; stroke: #fffcf0; stroke-width: 0.35" id="cell-517472541-means.point.5" data-role="point" data-series="cell-517472541-means" data-index="5" data-x="225.0" data-y="1.9357532248314926" data-kind="shape"/>
          <use xlink:href="#morph-def-003" x="195.615" y="129.939025" style="fill: #bc5215; stroke: #fffcf0; stroke-width: 0.35" id="cell-517472541-means.point.6" data-role="point" data-series="cell-517472541-means" data-index="6" data-x="270.0" data-y="1.947463706901079" data-kind="shape"/>
          <use xlink:href="#morph-def-003" x="217.6605" y="108.032087" style="fill: #bc5215; stroke: #fffcf0; stroke-width: 0.35" id="cell-517472541-means.point.7" data-role="point" data-series="cell-517472541-means" data-index="7" data-x="315.0" data-y="2.655065516249576" data-kind="shape"/>
        </g>
      </g>
      <g id="cell-517470177-means.points" data-series="cell-517470177-means" data-kind="shape">
        <defs>
          <path id="morph-def-004" d="M 0 1.414214  C 0.375054 1.414214 0.734797 1.265203 1 1  C 1.265203 0.734797 1.414214 0.375054 1.414214 0  C 1.414214 -0.375054 1.265203 -0.734797 1 -1  C 0.734797 -1.265203 0.375054 -1.414214 0 -1.414214  C -0.375054 -1.414214 -0.734797 -1.265203 -1 -1  C -1.265203 -0.734797 -1.414214 -0.375054 -1.414214 0  C -1.414214 0.375054 -1.265203 0.734797 -1 1  C -0.734797 1.265203 -0.375054 1.414214 0 1.414214  z " style="stroke: #fffcf0; stroke-width: 0.35"/>
        </defs>
        <g clip-path="url(#morph-def-006)">
          <use xlink:href="#morph-def-004" x="63.342" y="158.918503" style="fill: #5e409d; stroke: #fffcf0; stroke-width: 0.35" id="cell-517470177-means.point.0" data-role="point" data-series="cell-517470177-means" data-index="0" data-x="0.0" data-y="1.0114163854966796" data-kind="shape"/>
          <use xlink:href="#morph-def-004" x="85.3875" y="150.96354" style="fill: #5e409d; stroke: #fffcf0; stroke-width: 0.35" id="cell-517470177-means.point.1" data-role="point" data-series="cell-517470177-means" data-index="1" data-x="45.0" data-y="1.268364503216588" data-kind="shape"/>
          <use xlink:href="#morph-def-004" x="107.433" y="159.334981" style="fill: #5e409d; stroke: #fffcf0; stroke-width: 0.35" id="cell-517470177-means.point.2" data-role="point" data-series="cell-517470177-means" data-index="2" data-x="90.0" data-y="0.9979640221780558" data-kind="shape"/>
          <use xlink:href="#morph-def-004" x="129.4785" y="159.692694" style="fill: #5e409d; stroke: #fffcf0; stroke-width: 0.35" id="cell-517470177-means.point.3" data-role="point" data-series="cell-517470177-means" data-index="3" data-x="135.0" data-y="0.9864097573284215" data-kind="shape"/>
          <use xlink:href="#morph-def-004" x="151.524" y="159.5493" style="fill: #5e409d; stroke: #fffcf0; stroke-width: 0.35" id="cell-517470177-means.point.4" data-role="point" data-series="cell-517470177-means" data-index="4" data-x="180.0" data-y="0.9910414289153611" data-kind="shape"/>
          <use xlink:href="#morph-def-004" x="173.5695" y="158.119443" style="fill: #5e409d; stroke: #fffcf0; stroke-width: 0.35" id="cell-517470177-means.point.5" data-role="point" data-series="cell-517470177-means" data-index="5" data-x="225.0" data-y="1.0372263035392628" data-kind="shape"/>
          <use xlink:href="#morph-def-004" x="195.615" y="160.253107" style="fill: #5e409d; stroke: #fffcf0; stroke-width: 0.35" id="cell-517470177-means.point.6" data-role="point" data-series="cell-517470177-means" data-index="6" data-x="270.0" data-y="0.9683082174507676" data-kind="shape"/>
          <use xlink:href="#morph-def-004" x="217.6605" y="159.617373" style="fill: #5e409d; stroke: #fffcf0; stroke-width: 0.35" id="cell-517470177-means.point.7" data-role="point" data-series="cell-517470177-means" data-index="7" data-x="315.0" data-y="0.9888426576227476" data-kind="shape"/>
        </g>
      </g>
      <g id="cell-517470480-means.points" data-series="cell-517470480-means" data-kind="shape">
        <defs>
          <path id="morph-def-005" d="M 0 1.414214  C 0.375054 1.414214 0.734797 1.265203 1 1  C 1.265203 0.734797 1.414214 0.375054 1.414214 0  C 1.414214 -0.375054 1.265203 -0.734797 1 -1  C 0.734797 -1.265203 0.375054 -1.414214 0 -1.414214  C -0.375054 -1.414214 -0.734797 -1.265203 -1 -1  C -1.265203 -0.734797 -1.414214 -0.375054 -1.414214 0  C -1.414214 0.375054 -1.265203 0.734797 -1 1  C -0.734797 1.265203 -0.375054 1.414214 0 1.414214  z " style="stroke: #fffcf0; stroke-width: 0.35"/>
        </defs>
        <g clip-path="url(#morph-def-006)">
          <use xlink:href="#morph-def-005" x="63.342" y="189.965658" style="fill: #a02f6f; stroke: #fffcf0; stroke-width: 0.35" id="cell-517470480-means.point.0" data-role="point" data-series="cell-517470480-means" data-index="0" data-x="0.0" data-y="0.008582382417094478" data-kind="shape"/>
          <use xlink:href="#morph-def-005" x="85.3875" y="189.959297" style="fill: #a02f6f; stroke: #fffcf0; stroke-width: 0.35" id="cell-517470480-means.point.1" data-role="point" data-series="cell-517470480-means" data-index="1" data-x="45.0" data-y="0.008787852937091343" data-kind="shape"/>
          <use xlink:href="#morph-def-005" x="107.433" y="188.567892" style="fill: #a02f6f; stroke: #fffcf0; stroke-width: 0.35" id="cell-517470480-means.point.2" data-role="point" data-series="cell-517470480-means" data-index="2" data-x="90.0" data-y="0.05373073260475237" data-kind="shape"/>
          <use xlink:href="#morph-def-005" x="129.4785" y="190.20853" style="fill: #a02f6f; stroke: #fffcf0; stroke-width: 0.35" id="cell-517470480-means.point.3" data-role="point" data-series="cell-517470480-means" data-index="3" data-x="135.0" data-y="0.0007375189217420667" data-kind="shape"/>
          <use xlink:href="#morph-def-005" x="151.524" y="190.505279" style="fill: #a02f6f; stroke: #fffcf0; stroke-width: 0.35" id="cell-517470480-means.point.4" data-role="point" data-series="cell-517470480-means" data-index="4" data-x="180.0" data-y="-0.008847568256087866" data-kind="shape"/>
          <use xlink:href="#morph-def-005" x="173.5695" y="190.7861" style="fill: #a02f6f; stroke: #fffcf0; stroke-width: 0.35" id="cell-517470480-means.point.5" data-role="point" data-series="cell-517470480-means" data-index="5" data-x="225.0" data-y="-0.017918164725242974" data-kind="shape"/>
          <use xlink:href="#morph-def-005" x="195.615" y="187.084168" style="fill: #a02f6f; stroke: #fffcf0; stroke-width: 0.35" id="cell-517470480-means.point.6" data-role="point" data-series="cell-517470480-means" data-index="6" data-x="270.0" data-y="0.10165552175759522" data-kind="shape"/>
          <use xlink:href="#morph-def-005" x="217.6605" y="191.136963" style="fill: #a02f6f; stroke: #fffcf0; stroke-width: 0.35" id="cell-517470480-means.point.7" data-role="point" data-series="cell-517470480-means" data-index="7" data-x="315.0" data-y="-0.029251164561642642" data-kind="shape"/>
        </g>
      </g>
    </g>
  </g>
  <defs>
    <clipPath id="morph-def-006">
      <rect x="63.342" y="8.19" width="176.364" height="190.71"/>
    </clipPath>
  </defs>
</svg>
